<svg xmlns="http://www.w3.org/2000/svg" fill="none" viewBox="0 0 120 120"><path fill="url(#a)" d="M108.249 50.1499c-1.95-2.8-5.4-4.4-9.3496-4.4h-20.5c-1.35 0-2.6-.55-3.45-1.55-.9-1-1.25-2.4-1.05-3.85l2.55-16.4c1.1-4.9-2.15-10.4-7.05-12.05-4.55-1.7-9.9.6-12.05 3.85l-21.1 31.35-.6 1v44.2l.75.75 15.85 12.2501c2.1 2.1 6.85 3.25 10.2 3.25h19.5c6.7 0 13.45-5.05 14.95-11.2001l12.2996-37.45c1.3-3.55.95-7-.95-9.75Z"/><path fill="url(#b)" d="M26.05 31.9H20.9c-7.75 0-10.9 3-10.9 10.4v50.3c0 7.4 3.15 10.4 10.9 10.4h5.15c7.75 0 10.9-3 10.9-10.4V42.3c0-7.4-3.15-10.4-10.9-10.4Z"/><defs><linearGradient id="a" x1="72.8116" x2="72.8116" y1="11.3245" y2="108.55" gradientUnits="userSpaceOnUse"><stop stop-color="#FF33F7"/><stop offset=".50313" stop-color="#B66DFF"/><stop offset="1" stop-color="#7B6EF6"/></linearGradient><linearGradient id="b" x1="-21.5" x2="23.475" y1="123" y2="103" gradientUnits="userSpaceOnUse"><stop stop-color="#FF33F7"/><stop offset=".50313" stop-color="#B66DFF"/><stop offset="1" stop-color="#7B6EF6"/></linearGradient></defs></svg>