<svg xmlns="http://www.w3.org/2000/svg" fill="none" viewBox="0 0 24 24">
  <path stroke="current" stroke-linecap="round" stroke-linejoin="round" stroke-width="1.5"
    d="m13.73 3.51 1.76 3.52c.24.49.88.96 1.42 1.05l3.19.53c2.04.34 2.52 1.82 1.05 3.28l-2.48 2.48a2.17 2.17 0 0 0-.52 1.81l.71 3.07c.56 2.43-.73 3.37-2.88 2.1l-2.99-1.77a2.16 2.16 0 0 0-1.98 0l-2.99 1.77c-2.14 1.27-3.44.32-2.88-2.1l.71-3.07c.13-.58-.1-1.39-.52-1.81l-2.48-2.48c-1.46-1.46-.99-2.94 1.05-3.28l3.19-.53A2.18 2.18 0 0 0 8.5 7.03l1.76-3.52c.96-1.91 2.52-1.91 3.47 0Z" />
</svg>