<svg xmlns="http://www.w3.org/2000/svg" fill="none" viewBox="0 0 120 120"><path fill="url(#a)" d="M99.3 40.5v2.2A22.6 22.6 0 0 0 76.5 47a22.4 22.4 0 0 0-37.2 16.8c0 14 7.1 24.4 13.9 31.1-.5 0-1-.1-1.4-.3C38.9 90.2 10 71.8 10 40.5a24.9 24.9 0 0 1 44.6-15 24.8 24.8 0 0 1 44.7 15Z"/><path fill="url(#b)" d="M90 48c-5.4 0-10.2 2.5-13.2 6.5a16.5 16.5 0 0 0-29.7 10c0 3.6.5 6.8 1.5 9.8A44.8 44.8 0 0 0 75 100.5c1 .3 2.7.3 3.7 0A44.8 44.8 0 0 0 105 74.3c1-3 1.5-6.3 1.5-9.8 0-9.2-7.4-16.6-16.5-16.6Z"/><defs><linearGradient id="a" x1="54.6" x2="54.6" y1="15.5" y2="94.9" gradientUnits="userSpaceOnUse"><stop stop-color="#FF33F7"/><stop offset=".5" stop-color="#B66DFF"/><stop offset="1" stop-color="#7B6EF6"/></linearGradient><linearGradient id="b" x1="76.8" x2="76.8" y1="47.9" y2="100.8" gradientUnits="userSpaceOnUse"><stop stop-color="#FF33F7"/><stop offset=".5" stop-color="#B66DFF"/><stop offset="1" stop-color="#7B6EF6"/></linearGradient></defs></svg>