<svg xmlns="http://www.w3.org/2000/svg" fill="none" viewBox="0 0 488 50">
  <path fill="#1EA5FC" d="m18.51 31.53 35.05-22a9.96 9.96 0 0 1 15.24 8.48v43.98a9.96 9.96 0 0 1-15.24 8.47L18.51 48.47a10.01 10.01 0 0 1 0-16.94Z"/>
  <path fill="#7B6EF6" d="m61.49 31.53-35.05-22a9.96 9.96 0 0 0-15.24 8.48v43.98a9.96 9.96 0 0 0 15.24 8.47l35.05-21.99a10.01 10.01 0 0 0 0-16.94ZM145.95 19.49 134.1 65.48h-13.4l-7.26-30.27-7.5 30.27H92.52L81 19.48h11.85l6.54 33.48 8.1-33.47h12.17l7.77 33.47 6.6-33.47h11.92ZM148 47.13c0-3.75.7-7.05 2.08-9.89a16.05 16.05 0 0 1 5.76-6.55 14.84 14.84 0 0 1 8.1-2.3c2.54 0 4.77.53 6.67 1.58a11.45 11.45 0 0 1 4.46 4.13v-5.18h11.08v36.56h-11.08V60.3a11.95 11.95 0 0 1-4.53 4.13 13.59 13.59 0 0 1-6.67 1.57c-2.94 0-5.61-.76-8.03-2.3a16.53 16.53 0 0 1-5.76-6.61 22.79 22.79 0 0 1-2.07-9.96Zm27.07.07c0-2.8-.77-5-2.33-6.62a7.33 7.33 0 0 0-5.57-2.42c-2.2 0-4.08.8-5.63 2.42-1.51 1.57-2.27 3.76-2.27 6.55 0 2.8.76 5.02 2.27 6.68a7.53 7.53 0 0 0 5.63 2.43c2.2 0 4.06-.8 5.57-2.43 1.56-1.61 2.33-3.82 2.33-6.61ZM213 55.98v9.5h-5.63c-4.02 0-7.15-.99-9.4-2.95-2.24-2.01-3.36-5.27-3.36-9.76V38.22h-4.4v-9.3h4.4v-8.91h11.07v8.91h7.26v9.3h-7.26V52.9c0 1.09.26 1.88.78 2.36s1.38.72 2.6.72H213ZM215.67 47.2c0-3.8.76-7.12 2.27-9.96a16.33 16.33 0 0 1 6.41-6.55 19.2 19.2 0 0 1 9.45-2.3c4.54 0 8.31 1.2 11.34 3.6 3.06 2.41 5.07 5.8 6.02 10.16h-11.79c-.99-2.8-2.91-4.19-5.76-4.19-2.03 0-3.65.8-4.86 2.42-1.2 1.58-1.81 3.85-1.81 6.82s.6 5.26 1.81 6.88a5.81 5.81 0 0 0 4.86 2.36c2.85 0 4.77-1.4 5.76-4.2h11.79c-.95 4.28-2.96 7.65-6.02 10.1-3.07 2.44-6.85 3.66-11.34 3.66-3.54 0-6.69-.76-9.45-2.3a16.33 16.33 0 0 1-6.41-6.54 20.9 20.9 0 0 1-2.27-9.96ZM278 28.53c4.14 0 7.47 1.4 9.97 4.19 2.5 2.75 3.76 6.55 3.76 11.4v21.36h-11.01V45.63c0-2.45-.63-4.35-1.88-5.7a6.54 6.54 0 0 0-5.05-2.04c-2.12 0-3.8.68-5.05 2.04-1.25 1.35-1.88 3.25-1.88 5.7v19.85h-11.07V17h11.07v16.83a11.87 11.87 0 0 1 4.6-3.86 14.55 14.55 0 0 1 6.54-1.44ZM309.2 17v48.48h-11.07V17h11.07ZM321.5 25.12a6.86 6.86 0 0 1-4.8-1.7 5.8 5.8 0 0 1-1.8-4.33c0-1.74.6-3.19 1.8-4.32a6.7 6.7 0 0 1 4.8-1.77c1.9 0 3.45.59 4.66 1.77a5.58 5.58 0 0 1 1.88 4.32c0 1.7-.63 3.15-1.88 4.33a6.53 6.53 0 0 1-4.66 1.7Zm5.5 3.8v36.56h-11.07V28.92H327ZM348.43 66c-3.15 0-5.96-.55-8.42-1.64a14.53 14.53 0 0 1-5.83-4.45 12.06 12.06 0 0 1-2.4-6.42h10.95c.13 1.26.71 2.29 1.75 3.08a6.14 6.14 0 0 0 3.82 1.18c1.38 0 2.44-.27 3.17-.8a2.58 2.58 0 0 0 1.17-2.15c0-1.05-.54-1.82-1.62-2.3a29.77 29.77 0 0 0-5.25-1.7 52.86 52.86 0 0 1-6.47-1.9 11.62 11.62 0 0 1-4.47-3.2c-1.25-1.5-1.88-3.48-1.88-5.97 0-2.1.56-4 1.69-5.7a11.74 11.74 0 0 1 5.05-4.13c2.24-1 4.9-1.5 7.96-1.5 4.54 0 8.1 1.13 10.69 3.4a13.26 13.26 0 0 1 4.53 9.04h-10.23a4.43 4.43 0 0 0-1.68-3.01 5.55 5.55 0 0 0-3.63-1.11c-1.3 0-2.29.26-2.98.78a2.33 2.33 0 0 0-1.04 2.03c0 1.05.54 1.84 1.62 2.36 1.13.53 2.85 1.05 5.18 1.57 2.68.7 4.86 1.4 6.54 2.1 1.69.66 3.16 1.75 4.4 3.28 1.3 1.48 1.97 3.49 2.01 6.02 0 2.14-.6 4.06-1.8 5.77a11.65 11.65 0 0 1-5.12 3.93c-2.2.96-4.77 1.44-7.71 1.44ZM388.68 55.98v9.5h-5.63c-4.01 0-7.15-.99-9.39-2.95-2.25-2.01-3.37-5.27-3.37-9.76V38.22h-4.4v-9.3h4.4v-8.91h11.08v8.91h7.25v9.3h-7.25V52.9c0 1.09.25 1.88.77 2.36s1.38.72 2.6.72h3.94Z"/>
  <path fill="#1EA5FC" d="M423.01 19.49c4.8 0 8.98.96 12.57 2.88a20.19 20.19 0 0 1 8.29 8.12 23.6 23.6 0 0 1 2.97 12c0 4.49-.99 8.49-2.97 11.98a20.1 20.1 0 0 1-8.36 8.12c-3.58 1.92-7.75 2.89-12.5 2.89h-17.03v-46h17.03Zm-.7 36.29c4.18 0 7.44-1.16 9.77-3.47 2.33-2.32 3.5-5.6 3.5-9.83 0-4.24-1.17-7.53-3.5-9.9-2.33-2.35-5.6-3.53-9.78-3.53h-5.24v26.73h5.24ZM479.26 41.9a10.5 10.5 0 0 1 6.34 3.99 11.2 11.2 0 0 1 2.4 7.07c0 3.85-1.34 6.9-4.01 9.17-2.64 2.23-6.33 3.35-11.08 3.35h-21.17v-46h20.46c4.62 0 8.22 1.08 10.81 3.22 2.64 2.14 3.95 5.04 3.95 8.7 0 2.72-.7 4.97-2.13 6.76a10.7 10.7 0 0 1-5.57 3.73Zm-16.45-3.8h7.25c1.82 0 3.2-.4 4.15-1.19.99-.83 1.49-2.03 1.49-3.6 0-1.57-.5-2.77-1.5-3.6-.94-.83-2.32-1.25-4.14-1.25h-7.25v9.63Zm8.16 18.34c1.86 0 3.28-.42 4.27-1.25a4.61 4.61 0 0 0 1.56-3.73c0-1.62-.54-2.89-1.62-3.8-1.04-.92-2.48-1.38-4.34-1.38h-8.03v10.16h8.16Z"/>
</svg>
