<svg xmlns="http://www.w3.org/2000/svg" viewBox="0 0 400 320" fill="none">
  <g clip-path="url(#a)">
    <path fill="#121829"
      d="M422.556 263.467H-21.8887v.222H422.556v-.222ZM378.022 277.769h-29.439v.222h29.439v-.222ZM272.529 280.187h-7.724v.222h7.724v-.222ZM347.694 269.52h-17.058v.222h17.058v-.222ZM63.1333 271.013H24.7422v.222h38.3911v-.222ZM76.6801 271.013h-5.6266v.222h5.6266v-.222ZM178.245 274.764H94.9736v.222h83.2714v-.222ZM188.778 223.822H17.1424a5.0729 5.0729 0 0 1-3.5833-1.49 5.0737 5.0737 0 0 1-1.4834-3.585V-22.5246a5.0758 5.0758 0 0 1 5.0667-5.0311H188.778a5.0746 5.0746 0 0 1 5.075 5.0756V218.747a5.075 5.075 0 0 1-1.486 3.589 5.0791 5.0791 0 0 1-3.589 1.486ZM17.1424-27.3779a4.853 4.853 0 0 0-4.8445 4.8533V218.747c0 1.285.5101 2.518 1.4184 3.428a4.8517 4.8517 0 0 0 3.4261 1.425H188.778a4.8643 4.8643 0 0 0 3.429-1.424c.91-.91 1.422-2.143 1.424-3.429V-22.5246a4.8593 4.8593 0 0 0-1.424-3.4292 4.8632 4.8632 0 0 0-3.429-1.4241H17.1424ZM381.053 223.822H209.409a5.0835 5.0835 0 0 1-3.586-1.489 5.0844 5.0844 0 0 1-1.49-3.586V-22.5246a5.089 5.089 0 0 1 1.505-3.5576 5.0844 5.0844 0 0 1 3.571-1.4735h171.644a5.074 5.074 0 0 1 3.562 1.4771 5.0718 5.0718 0 0 1 1.496 3.554V218.747c0 1.343-.532 2.631-1.48 3.582a5.0737 5.0737 0 0 1-3.578 1.493ZM209.409-27.3779a4.8614 4.8614 0 0 0-3.429 1.4241 4.8593 4.8593 0 0 0-1.424 3.4292V218.747a4.8601 4.8601 0 0 0 1.424 3.429 4.8626 4.8626 0 0 0 3.429 1.424h171.644a4.8649 4.8649 0 0 0 3.43-1.424 4.8686 4.8686 0 0 0 1.424-3.429V-22.5246a4.8678 4.8678 0 0 0-1.424-3.4292 4.8637 4.8637 0 0 0-3.43-1.4241H209.409Z" />
    <path fill="#20283E" d="M347.365 33.2441h-86.187V141.102h86.187V33.2441Z" />
    <path fill="#121829" d="M290.494 44.7109v47.4222l19.929-1.0577 2.284-46.3645h-22.213Z" />
    <path fill="#323B54"
      d="M306.627 53.8931h30.658l-.267 41.5111-15.875.2311-14.516-41.7422ZM276.778 47.7778h8.062l-2.817 37.0311-10.089 2.3645 4.844-39.3956Z" />
    <path fill="#20283E" d="M137.774 33.2441H51.5869V141.102h86.1871V33.2441Z" />
    <path fill="#323B54" d="m91.4359 46.5864 32.7201 59.2356-58.3379 8.569 25.6178-67.8046Z" />
    <path fill="#121829"
      d="M129.196 42.2041 65.1869 133.093h41.0581L60.458 51.7774v48.1067l66.756-20.7289 1.982-36.9511Z" />
    <path fill="#20283E" d="M156.387 141.093h86.186V33.2355h-86.186V141.093Z" />
    <path fill="#323B54" d="m176.102 114.382 45.289-45.7778-48.995-8.32 3.706 54.0978Z" />
    <path fill="#20283E" d="m220.298 103.529 2.249-35.1022-34.107 8.6133-2.471 26.8619 34.329-.373Z" />
    <path fill="#FAFAFA"
      d="M175.693 68.2931c7.605 0 13.769-6.3396 13.769-14.16 0-7.8203-6.164-14.16-13.769-14.16-7.604 0-13.768 6.3397-13.768 14.16 0 7.8204 6.164 14.16 13.768 14.16Z" />
    <path fill="#323B54"
      d="M215.845 116.053a6.6735 6.6735 0 0 1 4.247-6.032 6.6767 6.6767 0 0 1 3.841-.305c1.283.279 2.455.929 3.37 1.869a6.6777 6.6777 0 0 1 1.365 7.251 6.672 6.672 0 0 1-2.459 2.966 6.6802 6.6802 0 0 1-3.689 1.114 6.7827 6.7827 0 0 1-4.755-2.053 6.7785 6.7785 0 0 1-1.92-4.81Z" />
    <path fill="#20283E" d="m220.938 128.115-19.28-12.062 16.204-13.733 3.076 25.795Z" />
    <path fill="#323B54" d="M198.165 46.96h-3.787v86.124h3.787V46.96Z" />
    <path fill="#121829"
      d="M234.485 46.96h-4.907v82.32h4.907V46.96ZM190.085 103.902h-25.049v25.769h25.049v-25.769ZM51.3646 207.44h53.0844c.802 0 1.57.318 2.137.885s.885 1.336.885 2.137v10.391H48.3335v-10.382a3.0206 3.0206 0 0 1 .2283-1.161 3.021 3.021 0 0 1 2.8028-1.87ZM112.147 207.44h53.084c.802 0 1.571.318 2.137.885.567.567.886 1.336.886 2.137v10.391h-59.129v-10.382c-.001-.398.076-.792.227-1.159.152-.368.374-.702.655-.984.281-.281.614-.505.981-.657.368-.153.761-.231 1.159-.231ZM172.938 207.44h53.084c.802 0 1.571.318 2.137.885.567.567.886 1.336.886 2.137v10.391h-59.129v-10.382c-.001-.398.076-.792.227-1.159.152-.368.374-.702.655-.984.281-.281.614-.505.981-.657.368-.153.761-.231 1.159-.231ZM233.72 207.44h53.085c.801 0 1.57.318 2.137.885.566.567.885 1.336.885 2.137v10.391h-59.129v-10.382c-.001-.398.076-.792.227-1.159a3.0198 3.0198 0 0 1 1.637-1.641c.367-.153.761-.231 1.158-.231ZM294.511 207.44h53.085c.801 0 1.57.318 2.137.885s.885 1.336.885 2.137v10.391h-59.129v-10.382c-.001-.398.076-.792.228-1.159a3.0145 3.0145 0 0 1 1.636-1.641c.367-.153.761-.231 1.158-.231Z" />
    <path fill="#323B54" d="M356.823 214.764H42.1204v10.978H356.823v-10.978Z" />
    <path fill="#323B54"
      d="M364.378 264.186h-4.444v-33.315a5.0637 5.0637 0 0 0-1.482-3.568 5.0562 5.0562 0 0 0-3.567-1.481H44.0668a5.0575 5.0575 0 0 0-3.5675 1.481 5.0593 5.0593 0 0 0-1.4814 3.568v33.315h-4.4444v-33.315a9.5003 9.5003 0 0 1 2.7831-6.71 9.5053 9.5053 0 0 1 6.7102-2.784H354.885a9.505 9.505 0 0 1 6.71 2.784 9.4981 9.4981 0 0 1 2.783 6.71v33.315Z" />
    <path fill="#323B54" d="M201.702 220.258h-4.444v43.929h4.444v-43.929Z" />
    <path fill="#20283E"
      d="M200.333 303.609c95.185 0 172.347-4.505 172.347-10.062 0-5.558-77.162-10.063-172.347-10.063-95.184 0-172.3464 4.505-172.3464 10.063 0 5.557 77.1624 10.062 172.3464 10.062Z" />
    <path fill="#7C6EF6"
      d="M299.756 145.138c-3.058-42.8-31.494-75.6532-63.503-73.3598-1.075.0711-2.133.1955-3.191.3466h-.071c-32 2.2934-55.475 38.8442-52.444 81.6532 3.031 42.809 31.484 75.654 63.493 73.369 1.076-.08 2.142-.195 3.2-.355h.071c32.036-2.285 55.502-38.845 52.445-81.654Zm-10.143 1.04c.631 9.2-3.902 17.165-10.417 18.942-7.112-.346-13.112-7.849-13.778-17.44-.64-9.2 3.893-17.164 10.409-18.933 7.066.347 13.12 7.84 13.786 17.431Zm-29.244-57.1554c6.889 4.7022 9.849 15.8134 6.604 24.8084-1.84 5.112-5.333 8.436-9.182 9.503a11.5636 11.5636 0 0 1-5.902-2.08c-6.889-4.702-9.84-15.805-6.605-24.8003 1.84-5.1111 5.289-8.4444 9.192-9.5022 2.118.1326 4.158.8495 5.893 2.0711Zm-25.067 72.8884a4.2485 4.2485 0 0 1 .089-2.471c.092-.246.211-.482.356-.702.48.544.806 1.207.944 1.92.138.713.082 1.45-.162 2.134-.083.248-.2.485-.347.702a3.558 3.558 0 0 1-.88-1.583Zm2.667-12.355c-.098-.869.012-1.748.321-2.566.309-.817.809-1.55 1.457-2.136a5.417 5.417 0 0 1 1.883 1.919c.457.787.708 1.677.73 2.587.099.869-.01 1.749-.319 2.567-.31.818-.81 1.55-1.459 2.136a5.4086 5.4086 0 0 1-1.879-1.92 5.4135 5.4135 0 0 1-.725-2.587h-.009Zm7.04-12.551c.221.814.19 1.675-.089 2.471a2.87 2.87 0 0 1-.347.702 4.0637 4.0637 0 0 1-.949-1.918 4.0699 4.0699 0 0 1 .158-2.135c.092-.247.211-.483.356-.702.425.442.728.987.88 1.582h-.009Zm-54.302 15.733c-.64-9.2 3.893-17.164 10.409-18.942 7.111.347 13.12 7.849 13.786 17.44.631 9.2-3.902 17.164-10.409 18.942-7.066-.355-13.111-7.849-13.777-17.44h-.009Zm29.244 57.156c-6.889-4.702-9.849-15.814-6.604-24.809 1.84-5.111 5.333-8.436 9.182-9.502 2.118.138 4.157.858 5.893 2.08 6.889 4.702 9.849 15.804 6.605 24.808-1.84 5.112-5.334 8.436-9.183 9.494a11.4823 11.4823 0 0 1-5.884-2.071h-.009Zm14.782-73.005c.388.75.537 1.599.427 2.436a3.5678 3.5678 0 0 1-.551 1.538 3.2664 3.2664 0 0 1-.56-.756 4.3202 4.3202 0 0 1-.427-2.444c.062-.549.251-1.075.551-1.538.227.223.416.481.56.764Zm-3.609 13.262c.071.825-.125 1.651-.56 2.356a3.7028 3.7028 0 0 1-1.013-2.382c-.07-.822.127-1.645.56-2.347.609.638.969 1.474 1.013 2.356v.017Zm-3.342-52.3728c4.445 8.4708 3.049 19.8758-3.129 25.4578a11.6489 11.6489 0 0 1-4.737 2.667c-4.294-.223-8.534-3.094-11.245-8.24-4.444-8.48-3.049-19.8759 3.129-25.4671a11.6235 11.6235 0 0 1 4.738-2.6666c4.293.2489 8.533 3.0933 11.244 8.2489Zm17.778 64.2848a4.1087 4.1087 0 0 1-.449-2.009c.024-.696.224-1.376.582-1.974.222.226.407.484.551.765.388.749.537 1.599.427 2.435-.062.549-.25 1.075-.551 1.538-.211-.23-.39-.487-.533-.764l-.027.009Zm3.662-13.28c-.071-.826.129-1.653.569-2.356.607.651.965 1.494 1.013 2.382.071.826-.129 1.653-.568 2.356a3.7933 3.7933 0 0 1-1.014-2.382Zm3.351 52.364c-4.444-8.471-3.057-19.876 3.12-25.458a11.639 11.639 0 0 1 4.738-2.666c4.302.213 8.542 3.084 11.245 8.231 4.444 8.48 3.057 19.875-3.12 25.466a11.6771 11.6771 0 0 1-4.738 2.667c-4.329-.222-8.569-3.084-11.271-8.24h.026Z" />
    <path fill="#000"
      d="M236.253 71.7782c-32 2.2844-55.475 38.8448-52.444 81.6448 3.031 42.8 31.493 75.653 63.502 73.369 32.009-2.285 55.476-38.845 52.444-81.654-3.031-42.809-31.493-75.6531-63.502-73.3598Zm9.031 24.6755c3.245-8.9955 11.458-12.4444 18.347-7.7777 6.889 4.6666 9.849 15.804 6.605 24.8-3.245 8.996-11.449 12.444-18.338 7.778-6.889-4.667-9.849-15.805-6.614-24.8003Zm8.756 52.0003c.124 1.778-.889 3.306-2.187 3.404-1.333.089-2.524-1.289-2.666-3.075-.143-1.787.888-3.307 2.195-3.405 1.307-.098 2.534 1.289 2.658 3.067v.009Zm-10.249-12.329c.119-.457.369-.869.72-1.186.35-.316.786-.522 1.253-.592.452-.024.897.108 1.263.373.635.46 1.081 1.137 1.253 1.903.223.813.195 1.674-.08 2.471-.125.449-.378.852-.729 1.16-.35.308-.783.507-1.244.573-.454.031-.903-.098-1.271-.364a3.9232 3.9232 0 0 1-1.266-1.986 3.9195 3.9195 0 0 1 .101-2.352Zm-5.796.391c.386.75.537 1.598.436 2.436-.069.781-.42 1.511-.987 2.053-.32.309-.738.498-1.182.533a2.424 2.424 0 0 1-1.321-.396 2.4235 2.4235 0 0 1-.892-1.053 4.3187 4.3187 0 0 1-.427-2.444c.075-.778.421-1.505.978-2.053a2.018 2.018 0 0 1 1.191-.534c.47.001.929.139 1.321.398.392.259.699.628.883 1.06ZM211.8 92.1782c6.222-5.5822 14.791-3.2445 19.244 5.2355 4.454 8.4803 3.067 19.9203-3.155 25.4663-6.222 5.547-14.8 3.236-19.254-5.235-4.453-8.471-2.968-19.8668 3.165-25.4668Zm22.595 57.6088c.125 1.778-.888 3.307-2.195 3.396-1.342.097-2.525-1.289-2.667-3.076-.142-1.787.889-3.307 2.187-3.395 1.298-.089 2.551 1.288 2.675 3.075Zm-43.68 2.951c-.702-10.133 4.872-18.773 12.445-19.289 7.573-.515 14.302 7.298 15.004 17.431.703 10.134-4.871 18.774-12.444 19.289-7.573.516-14.276-7.289-15.005-17.431Zm47.592 49.378c-3.245 8.996-11.458 12.444-18.347 7.778-6.889-4.667-9.849-15.814-6.605-24.809 3.245-8.996 11.449-12.445 18.338-7.778 6.889 4.667 9.849 15.813 6.614 24.809Zm1.493-39.671c-.127.448-.381.85-.731 1.158-.35.307-.781.507-1.242.575-.451.028-.896-.101-1.263-.364a3.2749 3.2749 0 0 1-1.262-1.902 4.2515 4.2515 0 0 1 .089-2.472c.119-.457.369-.869.72-1.185.35-.316.786-.522 1.253-.592.453-.022.9.106 1.271.364a3.9272 3.9272 0 0 1 1.165 4.418Zm-1.778-12.889c-.204-2.818 1.342-5.227 3.449-5.378 2.107-.151 3.982 2.009 4.187 4.836.204 2.826-1.343 5.226-3.449 5.378-2.107.151-4.036-2.018-4.231-4.836h.044Zm7.609 12.498a3.9307 3.9307 0 0 1 .551-4.498c.327-.305.746-.492 1.191-.533.471.001.931.139 1.324.398.394.259.703.627.89 1.059.378.753.527 1.6.426 2.436-.07.779-.417 1.507-.977 2.053-.325.309-.745.497-1.192.534-.477.007-.945-.127-1.347-.384a2.4277 2.4277 0 0 1-.91-1.065h.044Zm26.204 44.329c-6.177 5.591-14.791 3.244-19.244-5.236-4.453-8.48-3.058-19.875 3.12-25.458 6.178-5.582 14.8-3.244 19.245 5.236 4.444 8.48 3.013 19.875-3.165 25.458h.044Zm8.632-41.271c-7.583.515-14.303-7.289-15.005-17.432-.702-10.142 4.871-18.773 12.445-19.28 7.573-.506 14.302 7.289 15.004 17.423.702 10.133-4.907 18.773-12.489 19.289h.045Z"
      opacity=".2" />
    <path fill="#FAFAFA"
      d="M259.542 59.7071c53.147 4.8622 56.889 71.3779 53.378 96.8889l-27.555-8.587s-5.334-79.9197-58.472-84.7819c0 0-5.253-.6578-15.164 1.04a197.7778 197.7778 0 0 1 44.951-4.7111"
      opacity=".2" />
    <path fill="#263238"
      d="M259.542 59.7071c53.147 4.8622 56.889 71.3779 53.378 96.8889l-27.555-8.587s-5.334-79.9197-58.472-84.7819c0 0-5.253-.6578-15.164 1.04a197.7778 197.7778 0 0 1 44.951-4.7111" />
    <path fill="#263238"
      d="M256.68 59.556c-5.716-.1245-11.325.0978-16.542.5066a37.7526 37.7526 0 0 0-4.276 1.7778c-1.973.1156-3.902.2489-5.76.4 1.005-.56 2.045-1.0667 3.102-1.5378-7.22.7785-14.39 1.9656-21.475 3.5556h.053c-44.8 11.0222-48.889 91.7778-74.667 85.7778l.418.133s16 6.223 33.005 4.569l-.534-.133c26.88 2.667 31.067-96.889 86.738-95.1113l-.062.0623Zm-51.156 7.1111c1.263-.2133 2.596-.4356 3.991-.64a48.632 48.632 0 0 0-4.711 3.1822c-1.457.2489-2.835.5156-4.089.7733a53.431 53.431 0 0 1 4.809-3.3155Zm-6.382 4.5689c1.218-.2222 2.525-.4356 3.902-.6489-1.137.9422-2.257 1.9289-3.324 2.96-1.458.2578-2.809.5066-4.045.7555 1.103-1.0489 2.267-2.08 3.467-3.0577v-.0089Zm-4.675 4.2489c1.226-.2134 2.533-.4267 3.92-.6311-.889.8888-1.778 1.8666-2.667 2.8533-1.458.24-2.809.4889-4.027.72a64.4907 64.4907 0 0 1 2.774-2.9334v-.0088Zm-3.805 4.0977 3.929-.6133c-.764.8889-1.52 1.7778-2.258 2.7556-1.449.2311-2.8.4622-4.035.6844.782-.9511 1.564-1.8933 2.364-2.8178v-.0089Zm-3.271 4.0089c1.236-.1955 2.551-.3822 3.956-.5777a154.52 154.52 0 0 0-1.974 2.6666c-1.44.2045-2.791.4178-4.026.6222.657-.8977 1.342-1.8044 2.044-2.7022v-.0089Zm-2.924 3.9645c1.253-.1778 2.577-.3556 3.973-.5156-.596.8889-1.182 1.7333-1.778 2.6222-1.44.1867-2.8.3912-4.044.5778.622-.9066 1.235-1.7955 1.849-2.6755v-.0089Zm-2.667 3.9289c1.253-.1511 2.587-.3023 3.991-.4445-.551.8445-1.084 1.7067-1.609 2.5778-1.431.1511-2.782.3289-4.035.4889.56-.8711 1.111-1.7422 1.671-2.6134l-.018-.0088Zm-2.471 3.9555c1.262-.1422 2.595-.2755 4-.3911-.507.8356-.987 1.68-1.476 2.5245-1.431.1422-2.773.2844-4.035.4355l1.511-2.5689Zm-2.302 3.9556c1.262-.1245 2.595-.24 3.991-.3289-.471.8266-.889 1.6619-1.378 2.4979-1.422.107-2.765.24-4.045.364.489-.844.96-1.68 1.449-2.5241l-.017-.0089Zm-24.516 49.529-3.982-.391c.799-.673 1.551-1.401 2.249-2.178 1.244.133 2.569.258 3.946.373-.686.779-1.419 1.515-2.195 2.205l-.018-.009Zm4.222-4.622-3.946-.311c.551-.72 1.111-1.476 1.662-2.276l3.929.302c-.525.809-1.067 1.574-1.6 2.294l-.045-.009Zm3.254-4.747c-1.387-.08-2.667-.169-3.965-.231.468-.747.939-1.52 1.413-2.32l3.956.24c-.453.8-.924 1.573-1.387 2.311h-.017Zm2.8-4.773-3.974-.169c.427-.756.889-1.538 1.289-2.338l3.956.169c-.4.8-.827 1.582-1.254 2.347l-.017-.009Zm2.56-4.783-3.992-.097c.4-.774.809-1.556 1.209-2.365l3.983.107c-.392.809-.783 1.591-1.183 2.364l-.017-.009Zm2.408-4.773h-4c.392-.791.792-1.573 1.183-2.382h3.991c-.382.809-.774 1.6-1.156 2.391l-.018-.009Zm2.347-4.755c-1.422 0-2.755 0-4.027.044.4-.791.792-1.6 1.192-2.4 1.271 0 2.595 0 4-.053l-1.165 2.409Zm2.311-4.747-4.018.124c.392-.809.8-1.617 1.218-2.435l3.991-.116-1.191 2.427Zm2.338-4.738-4.027.213 1.254-2.462c1.271-.071 2.604-.133 4.009-.186-.4.782-.809 1.671-1.218 2.444l-.018-.009Zm-1.644-4.444c.438-.836.883-1.671 1.333-2.507 1.271-.089 2.604-.178 4-.258-.436.827-.889 1.645-1.298 2.471-1.404.125-2.747.214-4.018.329l-.017-.035Zm2.986 44.124-4.364-.258c.995-.647 1.924-1.391 2.773-2.222l4.249.231c-.802.847-1.686 1.613-2.64 2.285l-.018-.036Zm4.96-4.853-4.186-.231c.568-.711 1.146-1.485 1.706-2.303 1.351.089 2.747.16 4.169.232-.542.853-1.075 1.617-1.671 2.337l-.018-.035Zm3.378-4.951-4.142-.214c.45-.746.903-1.52 1.36-2.32l4.133.214c-.435.835-.88 1.609-1.333 2.355l-.018-.035Zm2.791-4.978-4.133-.205c.409-.764.809-1.537 1.209-2.328l4.115.204c-.373.827-.773 1.609-1.173 2.364l-.018-.035Zm2.48-4.987-4.115-.195c.373-.765.746-1.556 1.111-2.347 1.342.071 2.72.124 4.115.204-.355.827-.72 1.609-1.093 2.374l-.018-.036Zm2.32-5.004-4.107-.178 1.067-2.347 4.107.187c-.338.827-.694 1.6-1.049 2.373l-.018-.035Zm2.267-5.005-4.116-.16 1.04-2.355c1.342.053 2.667.106 4.107.178l-1.031 2.337Zm2.204-5.004-4.124-.142c.346-.783.702-1.565 1.049-2.365l4.124.16-1.049 2.347Zm2.231-4.996c-1.404 0-2.782-.097-4.142-.124.365-.782.72-1.573 1.076-2.356l4.133.134c-.347.791-.72 1.6-1.067 2.382v-.036Zm2.285-4.986-4.151-.107c.364-.782.737-1.573 1.12-2.364 1.351 0 2.737.062 4.142.115-.373.818-.747 1.6-1.111 2.391v-.035Zm2.373-4.978c-1.413-.045-2.809-.071-4.178-.08.391-.8.783-1.5912 1.183-2.3824 1.368 0 2.755.0534 4.168.0978-.4.8178-.791 1.6086-1.173 2.3996v-.035Zm2.196-4.3735h-4.214c.409-.8.818-1.6 1.245-2.3911h4.213c-.418.8445-.835 1.6445-1.244 2.4267v-.0356Zm2.32-4.3289c-1.458 0-2.889 0-4.276.0534.445-.8089.889-1.6178 1.36-2.4178h4.267c-.462.8089-.916 1.6089-1.351 2.4v-.0356Zm2.48-4.2222c-1.485 0-2.934.0622-4.347.1156.489-.8267.978-1.6445 1.484-2.4445 1.414-.0444 2.863-.0711 4.347-.0889-.507.7645-1.004 1.5289-1.484 2.4178Zm2.666-4.2933c-1.511.0444-2.986.1066-4.444.1778.533-.8356 1.084-1.6534 1.644-2.4623 1.449-.0533 2.925-.1066 4.445-.1422-.525.7645-1.076 1.5734-1.618 2.3911l-.027.0356Zm2.987-4.2667c-1.547.0622-3.049.1422-4.524.2311.613-.8889 1.244-1.6889 1.884-2.4977 1.476-.0889 2.996-.1512 4.542-.1956-.622.7644-1.253 1.5822-1.875 2.4267l-.027.0355Zm3.396-4.2933c-1.592.0889-3.138.1866-4.649.2933.72-.8889 1.457-1.7155 2.204-2.5422 1.529-.0978 3.093-.1778 4.693-.2578a69.7868 69.7868 0 0 0-2.222 2.4711l-.026.0356Zm4.026-4.32c-1.662.0978-3.28.2133-4.835.3378.889-.8889 1.777-1.7778 2.666-2.5867 1.591-.1245 3.227-.2133 4.907-.3022-.889.7822-1.813 1.6355-2.747 2.5155l.009.0356Zm5.067-4.4c-1.778.0978-3.476.2311-5.138.3822a43.6908 43.6908 0 0 1 3.627-2.6667c1.715-.1244 3.475-.2222 5.28-.3111a41.703 41.703 0 0 0-3.742 2.56l-.027.0356Z" />
    <path fill="#FAFAFA"
      d="M254.902 59.5024h1.778c-.587.0533-1.182-.0089-1.778 0Zm-19.013 2.3288c-1.974.1156-3.902.2489-5.76.4 1.004-.56 2.053-1.0666 3.093-1.5377-1.147.1244-2.258.2666-3.351.4-7.111.8888-12.738 2.0088-15.733 2.6666-1.378.2934-2.205.4889-2.356.5245-44.8 11.0133-48.889 91.7684-74.667 85.7684l.418.134s16 6.222 33.005 4.56l-.534-.125c26.587 2.667 30.96-94.7197 84.943-95.1108-5.103-.0444-10.098.1689-14.765.5334a39.4348 39.4348 0 0 0-4.293 1.7866Zm-30.365 4.8356c1.263-.2133 2.596-.4356 3.991-.64a48.632 48.632 0 0 0-4.711 3.1822c-1.457.2489-2.835.5156-4.089.7733a53.431 53.431 0 0 1 4.809-3.3155Zm-6.382 4.5689c1.218-.2222 2.525-.4356 3.902-.6489-1.137.9422-2.257 1.9289-3.324 2.96-1.458.2578-2.809.5067-4.045.7555 1.103-1.0488 2.267-2.08 3.467-3.0577v-.0089Zm-4.675 4.2489c1.226-.2134 2.533-.4267 3.92-.6311-.889.8889-1.778 1.8666-2.667 2.8533-1.458.24-2.809.4889-4.027.72a64.4358 64.4358 0 0 1 2.774-2.9333v-.0089Zm-3.805 4.0977 3.929-.6133c-.764.8889-1.52 1.7778-2.258 2.7556-1.449.2311-2.8.4622-4.035.6844.782-.9511 1.564-1.8933 2.364-2.8178v-.0089Zm-3.271 4.0089c1.236-.1955 2.551-.3822 3.956-.5777a154.52 154.52 0 0 0-1.974 2.6666c-1.44.2045-2.791.4178-4.026.6222.657-.8977 1.342-1.8044 2.044-2.7022v-.0089Zm-2.924 3.9645c1.253-.1778 2.577-.3556 3.973-.5156-.596.8889-1.182 1.7334-1.778 2.6222-1.44.1867-2.8.3912-4.044.5778.622-.9066 1.235-1.7955 1.849-2.6755v-.0089Zm-2.667 3.9289c1.253-.1511 2.587-.3023 3.991-.4445-.551.8445-1.084 1.7067-1.609 2.5778-1.431.1511-2.782.3289-4.035.4889.56-.8711 1.111-1.7422 1.671-2.6133l-.018-.0089Zm-2.471 3.9555c1.262-.1422 2.595-.2755 4-.3911-.507.8356-.987 1.68-1.476 2.5245-1.431.1422-2.773.2844-4.035.4355l1.511-2.5689Zm-2.302 3.9556c1.262-.1245 2.595-.24 3.991-.3289-.471.8267-.889 1.6622-1.378 2.4982-1.422.106-2.765.24-4.045.364.489-.844.96-1.68 1.449-2.5244l-.017-.0089Zm-2.587 4.6663c1.271-.089 2.604-.177 4-.257-.436.826-.889 1.644-1.298 2.471-1.422.089-2.764.177-4.035.293.45-.83.9-1.662 1.351-2.498l-.018-.009Zm-2.462 4.676c1.271-.071 2.604-.133 4.009-.187-.418.809-.827 1.627-1.236 2.436l-4.027.213 1.254-2.462Zm-2.365 4.675 3.991-.115-1.191 2.427-4.018.124c.409-.8.827-1.609 1.236-2.427l-.018-.009Zm-2.346 4.703c1.271 0 2.595 0 4-.054l-1.156 2.418c-1.422 0-2.756 0-4.027.045.409-.792.8-1.6 1.2-2.4l-.017-.009Zm-2.329 4.702h3.991c-.4.8-.791 1.6-1.174 2.382h-4c.409-.755.809-1.564 1.2-2.373l-.017-.009Zm-2.374 4.72 3.983.107c-.409.8-.8 1.582-1.2 2.355l-3.992-.098c.418-.764.827-1.546 1.227-2.355l-.018-.009Zm-2.462 4.738 3.956.169c-.418.791-.889 1.573-1.271 2.337l-3.974-.169c.445-.746.871-1.528 1.307-2.328l-.018-.009Zm-2.667 4.729 3.956.24c-.471.791-.942 1.564-1.404 2.311-1.387-.08-2.667-.169-3.965-.231.504-.741.981-1.512 1.431-2.312l-.018-.008Zm-2.986 4.711 3.929.302c-.543.8-1.085 1.564-1.645 2.284l-3.946-.311c.568-.711 1.128-1.466 1.68-2.266l-.018-.009Zm-3.671 4.64c1.244.133 2.569.257 3.946.373a25.622 25.622 0 0 1-2.213 2.196l-3.982-.392c.805-.669 1.562-1.393 2.266-2.168l-.017-.009Zm25.315 4.337-4.364-.257c.995-.648 1.924-1.392 2.773-2.223l4.249.232c-.803.837-1.688 1.594-2.64 2.257l-.018-.009Zm4.96-4.853-4.186-.231a39.013 39.013 0 0 0 1.706-2.302c1.351.089 2.747.16 4.169.231-.542.827-1.075 1.591-1.671 2.311l-.018-.009Zm3.378-4.951-4.142-.213c.45-.747.904-1.52 1.36-2.32l4.133.213c-.435.809-.88 1.582-1.333 2.329l-.018-.009Zm2.791-4.978-4.133-.204c.409-.765.809-1.538 1.209-2.329l4.115.204c-.373.8-.773 1.583-1.173 2.338l-.018-.009Zm2.48-4.986-4.115-.196c.373-.764.746-1.556 1.111-2.347 1.342.071 2.72.125 4.115.205-.355.8-.72 1.582-1.093 2.346l-.018-.008Zm2.32-5.005-4.107-.178 1.067-2.346 4.107.186c-.338.8-.694 1.574-1.049 2.347l-.018-.009Zm2.267-5.031-4.116-.16 1.04-2.356c1.342.054 2.667.107 4.107.178l-1.031 2.338Zm2.204-5.004-4.124-.143c.346-.782.702-1.564 1.049-2.364l4.124.16-1.049 2.347Zm2.231-4.996c-1.404 0-2.782-.098-4.142-.124.365-.783.72-1.574 1.076-2.356l4.133.133c-.347.791-.72 1.6-1.067 2.383v-.036Zm2.285-4.987-4.151-.106c.364-.783.737-1.574 1.12-2.365 1.351 0 2.737.062 4.142.116-.373.818-.747 1.6-1.111 2.391v-.036Zm2.373-4.977c-1.413-.045-2.809-.072-4.178-.08.391-.8.783-1.5915 1.183-2.3826 1.368 0 2.755.0533 4.168.0977-.4.8178-.791 1.6089-1.173 2.3999v-.035Zm2.196-4.3738h-4.214c.409-.8.818-1.6 1.245-2.3911h4.213c-.418.8445-.835 1.6445-1.244 2.4267v-.0356Zm2.32-4.3288c-1.458 0-2.889-.0001-4.276.0533.445-.8089.889-1.6178 1.36-2.4178h4.267c-.462.8089-.916 1.6089-1.351 2.4v-.0355Zm2.48-4.2223c-1.485 0-2.934.0623-4.347.1156.489-.8267.978-1.6445 1.484-2.4445 1.414-.0444 2.863-.0711 4.347-.0889-.507.7645-1.004 1.5289-1.484 2.4178Zm2.666-4.2933c-1.511.0444-2.986.1067-4.444.1778.533-.8356 1.084-1.6534 1.644-2.4622 1.449-.0534 2.925-.1067 4.445-.1423-.525.7645-1.076 1.5734-1.618 2.3911l-.027.0356Zm2.987-4.2667c-1.547.0622-3.049.1423-4.524.2311.613-.8888 1.244-1.6888 1.884-2.4977 1.476-.0889 2.996-.1511 4.542-.1956-.622.7645-1.253 1.5822-1.875 2.4267l-.027.0355Zm3.396-4.2933c-1.592.0889-3.138.1867-4.649.2933.72-.8889 1.457-1.7155 2.204-2.5422 1.529-.0978 3.093-.1778 4.693-.2578a69.8753 69.8753 0 0 0-2.222 2.4711l-.026.0356Zm4.026-4.32c-1.662.0978-3.28.2133-4.835.3378.889-.8889 1.777-1.7778 2.666-2.5867 1.591-.1244 3.227-.2133 4.907-.3022-.889.7822-1.813 1.6355-2.747 2.5155l.009.0356Zm5.067-4.4c-1.778.0978-3.476.2311-5.138.3822a43.667 43.667 0 0 1 3.627-2.6666c1.715-.1245 3.475-.2223 5.28-.3112a41.703 41.703 0 0 0-3.742 2.56l-.027.0356Z"
      opacity=".4" />
    <g fill="#000" opacity=".4">
      <path
        d="M169.676 124.32a185.5515 185.5515 0 0 1-3.005 5.965c5.92.355 11.671.542 16.942.631.889-1.778 1.778-3.556 2.711-5.387 1.245-2.48 2.569-5.422 4.009-8.666-6.142-.107-11.893-.143-16.986-.134-1.28 2.614-2.507 5.156-3.671 7.591ZM183.444 97.6628c4.854-.2756 10.214-.4445 16-.4356 2.205-4.3289 4.667-8.7378 7.423-13.0578-5.414.1778-10.56.4534-15.254.7823-2.835 4.0266-5.582 8.3199-8.169 12.7111ZM154.875 147.929c5.446.559 10.918.814 16.392.765 4.204-3.467 7.484-8.605 10.666-14.623-5.333-.106-11.084-.32-16.986-.702a78.6536 78.6536 0 0 1-10.072 14.56ZM174.929 113.547c5.093 0 10.764 0 16.8.151 1.822-4.115 3.84-8.622 6.133-13.289-5.92 0-11.396.24-16.276.551-2.364 4.205-4.586 8.454-6.657 12.587ZM151.871 150.863c-.632.567-1.323 1.065-2.062 1.484 6.684 1.618 11.893 1.289 16.195-.471-5.288-.124-10.017-.507-14.133-1.013ZM229.844 61.0938a47.8807 47.8807 0 0 0-8.124 5.3333c-4.933.1867-9.467.5333-13.609.9778a41.374 41.374 0 0 1 6-3.68c2.996-.6134 8.622-1.7156 15.733-2.6311ZM194.111 81.6005c4.64-.3022 9.662-.5422 14.898-.6844 1.413-2.0711 2.889-4.1067 4.444-6.0889a54.4365 54.4365 0 0 1 4.445-5.0044c-5.334.32-10.169.8266-14.489 1.4222a82.659 82.659 0 0 0-9.298 10.3555Z"
        opacity=".4" />
    </g>
    <path fill="#263238"
      d="M170.493 154.667a12.578 12.578 0 0 1-4.08-.942c-19.297-7.823-29.031-41.52-16.186-91.4848 8.08-31.4311 23.111-41.7778 23.111-41.7778-19.254-7.1733-31.556-4.3644-31.556-4.3644s-15.049 10.3911-23.111 41.8222c-12.835 49.9648-3.111 83.6618 16.187 91.4758l.889.338s2.666 1.004 6.924 2.133c6.729 1.778 17.422 3.92 27.813 2.915l.009-.115Zm-27.306-30.969c-1.049-.044-2.08-.116-3.103-.187-.177-.8-.337-1.617-.48-2.435l3.112.213c.142.8.302 1.618.471 2.4v.009Zm-1.28-8c.089.818.195 1.618.302 2.409l-3.129-.258c-.116-.8-.222-1.609-.311-2.427 1.04.134 2.089.214 3.138.294v-.018Zm-.24-22.3645c-.071.8-.125 1.5911-.169 2.3822l-3.156-.4088c.045-.7823.098-1.5823.169-2.3823l3.156.4089Zm-2.871-3.6266c.071-.7912.151-1.5734.248-2.3734l3.156.4267c-.098.8-.178 1.5911-.249 2.3733l-3.155-.4266Zm2.551 9.2088c0 .8089-.054 1.6093-.071 2.4093-1.014-.125-2.08-.249-3.147-.391 0-.792 0-1.5916.062-2.4005 1.067.1334 2.116.2667 3.147.3822h.009Zm-.08 5.6003c0 .818 0 1.618.044 2.418-1.04-.107-2.089-.232-3.155-.356 0-.791 0-1.591-.045-2.418 1.049.125 2.107.249 3.147.356h.009Zm.177 5.6c0 .818.098 1.626.16 2.418-1.04-.098-2.088-.196-3.146-.312-.062-.8-.116-1.608-.169-2.426l3.155.32Zm24.543-89.778c.889.2489 1.777.5155 2.729.8089-.543.4711-1.218 1.1022-1.992 1.8933-.96-.2845-1.884-.5511-2.8-.8.854-.7911 1.529-1.4311 2.054-1.8667l.009-.0355Zm-3.654 3.5555c.889.2489 1.876.5156 2.836.8-.542.6045-1.102 1.2711-1.698 2.0089-.978-.2844-1.947-.5333-2.871-.7822.622-.6845 1.182-1.36 1.724-1.9733l.009-.0534Zm-3.12 3.7689c.96.24 1.929.4889 2.916.7645-.489.6488-.987 1.3422-1.502 2.08-.996-.2667-1.974-.5156-2.934-.7467.516-.6933 1.023-1.3867 1.511-2.0445l.009-.0533Zm-2.72 3.8845c.96.2311 1.947.48 2.951.7466a56.748 56.748 0 0 0-1.333 2.1245c-1.013-.2578-2.009-.5067-2.978-.7289.445-.6934.898-1.4134 1.351-2.0889l.009-.0533Zm-2.444 4.0088c.978.2223 1.973.4623 2.987.7289-.392.6934-.792 1.4134-1.183 2.1689-1.022-.2667-2.026-.4978-3.004-.7289.373-.72.8-1.44 1.2-2.1689Zm-2.169 4.0445c.996.2133 1.991.4533 3.022.7022-.355.72-.702 1.4489-1.058 2.2133a133.2674 133.2674 0 0 0-3.031-.72c.356-.7288.711-1.4666 1.067-2.1688v-.0267Zm-1.929 4.0978c.996.2222 2.009.4622 3.031.7111-.311.72-.631 1.4666-.942 2.2311-1.022-.2578-2.044-.4978-3.049-.7111.32-.7378.676-1.4845.96-2.2045v-.0266Zm-2.133 5.1822c1.031.2133 2.053.4355 3.084.6667-.284.7377-.551 1.4844-.826 2.2666-1.023-.2311-2.054-.4533-3.076-.6578.267-.7466.551-1.5022.818-2.2666v-.0089Zm-1.84 5.3333c1.04.1956 2.08.3911 3.102.6045-.24.7466-.471 1.5111-.711 2.2933-1.022-.2133-2.062-.4-3.102-.5956.231-.7822.462-1.5466.711-2.2933v-.0089Zm-2.062 7.1111c.151-.5955.302-1.1733.462-1.7777 1.066.1866 2.106.3644 3.129.56-.151.5422-.303 1.0844-.436 1.6444-.062.2222-.124.4533-.178.6756-1.022-.1867-2.062-.3734-3.12-.5512.036-.1333.089-.3288.143-.5422v-.0089Zm-.889 3.7245 3.137.5066c-.195.7823-.373 1.5645-.542 2.3378l-3.146-.5066c.142-.72.328-1.52.524-2.3023l.027-.0355Zm-1.245 5.52c1.085.1511 2.134.32 3.156.4711-.178.7911-.329 1.5733-.48 2.3467l-3.156-.4623c.125-.7555.285-1.5377.454-2.32l.026-.0355Zm-1.084 5.5555 3.155.4623c-.151.7911-.284 1.5733-.409 2.3555l-3.146-.4533c.098-.7556.231-1.5378.373-2.3289l.027-.0356Zm-.889 5.6 3.155.4356c-.115.7911-.222 1.5822-.337 2.3644l-3.156-.4355c.053-.7467.169-1.5378.285-2.3111l.053-.0534Zm3.36-65.3155c.56 0 1.147 0 1.778.08a26.422 26.422 0 0 0-2.667 2.32h-1.778a27.6916 27.6916 0 0 1 2.614-2.3645l.053-.0355ZM139 20.338l1.733.0622a40.148 40.148 0 0 0-2.062 2.3555h-1.778c.72-.9244 1.423-1.7066 2.107-2.4177Zm-3.28 3.9022 1.698.0711a61.0482 61.0482 0 0 0-1.725 2.3556h-1.715c.578-.8889 1.146-1.68 1.706-2.4267h.036Zm-2.756 3.9022 1.672.08c-.498.7407-.996 1.523-1.494 2.3467l-1.671-.0534c.462-.8355.969-1.6266 1.458-2.3733h.035Zm-2.408 3.9111c.515 0 1.057.0622 1.635.1156-.427.7378-.889 1.5022-1.28 2.3022l-1.644-.0978c.391-.8.844-1.5733 1.253-2.32h.036Zm-2.107 3.9022 1.618.1423a54.0184 54.0184 0 0 0-1.129 2.3022l-1.627-.1333c.347-.7912.72-1.5645 1.102-2.3112h.036Zm-1.893 3.9378 1.608.1689c-.328.7378-.666 1.5022-.995 2.2933-.56-.0622-1.093-.1066-1.6-.1511.284-.7911.631-1.5644.987-2.3111Zm-2.294 5.44 1.6.1689c-.284.7556-.569 1.52-.844 2.3111l-1.6-.1689c.275-.7644.569-1.5377.844-2.3111Zm-1.911 5.4667 1.591.1778a66.6925 66.6925 0 0 0-.72 2.32l-1.591-.1689c.231-.7822.48-1.5734.72-2.3111v-.0178Zm-2.107 7.2711c.152-.6044.312-1.1911.48-1.7778l1.583.1867c-.16.5955-.329 1.2089-.489 1.7778 0 .1689-.089.3466-.125.5155l-1.591-.1866c.054-.1245.089-.3111.142-.4978v-.0178Zm-.888 3.7333 1.573.1956c-.187.7822-.373 1.5733-.542 2.3467l-1.583-.1956c.143-.7556.32-1.5467.525-2.3289l.027-.0178Zm-1.254 5.5289 1.591.2045c-.177.7822-.329 1.5644-.489 2.3466l-1.582-.1955c.125-.7645.294-1.5467.454-2.3378l.026-.0178Zm-1.111 5.5556 1.582.2133c-.142.7911-.284 1.5733-.409 2.3644l-1.573-.2222c.125-.7555.267-1.5466.4-2.3555Zm-.889 5.5733 1.582.2222c-.124.7911-.24 1.5822-.346 2.3645l-1.574-.2223c.125-.7555.196-1.5466.32-2.3466l.018-.0178Zm-.72 5.5111 1.582.2222c-.106.8-.186 1.5911-.257 2.3823l-1.583-.2311c.063-.7645.143-1.5645.24-2.3556l.018-.0178Zm-.524 5.52c.498.0889 1.031.16 1.573.24-.071.8-.124 1.6-.169 2.3911l-1.591-.24c.036-.7644.089-1.5644.169-2.3733l.018-.0178Zm-.329 5.5556 1.582.2489c0 .8089-.062 1.6177-.08 2.4177-.542-.0977-1.067-.1777-1.573-.2488 0-.7823.018-1.5912.053-2.3556l.018-.0622Zm-.089 5.5819 1.573.267v2.436l-1.582-.267c.009-.791-.009-1.6-.009-2.418l.018-.018Zm.169 5.636 1.582.275c.045.836.107 1.654.16 2.463l-1.573-.285c-.089-.791-.142-1.609-.187-2.435l.018-.018Zm.48 5.698 1.582.293c.098.889.205 1.68.32 2.498l-1.591-.302c-.133-.8-.24-1.627-.329-2.454l.018-.035Zm.844 5.786 1.6.32c.151.889.329 1.698.507 2.525l-1.6-.302c-.196-.809-.364-1.654-.551-2.525l.044-.018Zm.889 4.178 1.618.373c.213.889.444 1.778.684 2.596l-1.617-.356c-.267-.844-.498-1.706-.729-2.595l.044-.018Zm1.147 4.16c.498.133 1.049.285 1.635.427.294.889.605 1.822.889 2.666l-1.653-.417c-.284-.836-.613-1.734-.898-2.658l.027-.018Zm1.475 4.222 1.68.48c.4.969.8 1.911 1.245 2.818l-1.698-.471c-.453-.916-.862-1.849-1.227-2.827Zm3.663 7.343c-.596-.96-1.174-1.965-1.707-3.032l1.778.543c.542 1.049 1.129 2.062 1.778 3.022-.729-.187-1.316-.356-1.876-.533h.027Zm.995 1.528c.551.187 1.174.383 1.84.587a32.8228 32.8228 0 0 0 2.667 3.351l-1.902-.578a34.8312 34.8312 0 0 1-2.631-3.36h.026Zm10.454 9.529a25.7655 25.7655 0 0 1-6.16-4.444c.64.213 1.315.435 2.035.658a25.2583 25.2583 0 0 0 6.738 4.444l-2.613-.658Zm6.062-22.889c1.022.098 2.053.178 3.111.24.204.836.418 1.654.649 2.445-1.049-.062-2.08-.142-3.102-.222-.223-.809-.445-1.627-.649-2.463h-.009Zm1.378 4.774c1.031.106 2.062.204 3.111.284.275.845.569 1.662.889 2.462-1.04-.071-2.072-.16-3.085-.257-.355-.809-.622-1.636-.907-2.489h-.008Zm1.848 4.8c1.023.115 2.063.222 3.103.32.373.889.764 1.689 1.164 2.489-1.031-.08-2.053-.169-3.075-.285-.4-.809-.8-1.653-1.183-2.524h-.009Zm2.489 4.853c1.023.133 2.063.249 3.103.347.524.889 1.066 1.778 1.644 2.542-1.022-.071-2.044-.16-3.058-.276a39.8137 39.8137 0 0 1-1.68-2.613h-.009Zm6.125 7.689a29.122 29.122 0 0 1-2.605-2.711c1.031.133 2.054.249 3.085.338.759.915 1.576 1.782 2.444 2.595-.96-.053-1.946-.124-2.915-.222h-.009Zm8.649 5.218a9.0955 9.0955 0 0 1-1.005-.32c-1.56-.626-3.05-1.415-4.444-2.356.948.089 1.89.16 2.826.214 1.392.966 2.882 1.782 4.445 2.435-.596.027-1.2.036-1.813.027h-.009Z" />
    <path fill="#FAFAFA"
      d="M170.493 154.667a12.578 12.578 0 0 1-4.08-.942c-19.297-7.823-29.031-41.52-16.186-91.4848 8.08-31.4311 23.111-41.7778 23.111-41.7778-19.254-7.1733-31.556-4.3644-31.556-4.3644s-15.049 10.3911-23.111 41.8222c-12.835 49.9648-3.111 83.6618 16.187 91.4758l.889.338s2.666 1.004 6.924 2.133c6.729 1.778 17.422 3.92 27.813 2.915l.009-.115Zm-27.306-30.969c-1.049-.044-2.08-.116-3.103-.187-.177-.8-.337-1.617-.48-2.435l3.112.213c.142.8.302 1.618.471 2.4v.009Zm-1.28-8c.089.818.195 1.618.302 2.409l-3.129-.258c-.116-.8-.222-1.609-.311-2.427 1.04.134 2.089.214 3.138.294v-.018Zm-.24-22.3645c-.071.8-.125 1.5911-.169 2.3822l-3.156-.4088c.045-.7823.098-1.5823.169-2.3823l3.156.4089Zm-2.871-3.6266c.071-.7912.151-1.5734.248-2.3734l3.156.4267c-.098.8-.178 1.5911-.249 2.3733l-3.155-.4266Zm2.551 9.2088c0 .8089-.054 1.6093-.071 2.4093-1.014-.125-2.08-.249-3.147-.391 0-.792 0-1.5916.062-2.4005 1.067.1334 2.116.2667 3.147.3822h.009Zm-.08 5.6003c0 .818 0 1.618.044 2.418-1.04-.107-2.089-.232-3.155-.356 0-.791 0-1.591-.045-2.418 1.049.125 2.107.249 3.147.356h.009Zm.177 5.6c0 .818.098 1.626.16 2.418-1.04-.098-2.088-.196-3.146-.312-.062-.8-.116-1.608-.169-2.426l3.155.32Zm24.543-89.778c.889.2489 1.777.5155 2.729.8089-.543.4711-1.218 1.1022-1.992 1.8933-.96-.2845-1.884-.5511-2.8-.8.854-.7911 1.529-1.4311 2.054-1.8667l.009-.0355Zm-3.654 3.5555c.889.2489 1.876.5156 2.836.8-.542.6045-1.102 1.2711-1.698 2.0089-.978-.2844-1.947-.5333-2.871-.7822.622-.6845 1.182-1.36 1.724-1.9733l.009-.0534Zm-3.12 3.7689c.96.24 1.929.4889 2.916.7645-.489.6488-.987 1.3422-1.502 2.08-.996-.2667-1.974-.5156-2.934-.7467.516-.6933 1.023-1.3867 1.511-2.0445l.009-.0533Zm-2.72 3.8845c.96.2311 1.947.48 2.951.7466a56.748 56.748 0 0 0-1.333 2.1245c-1.013-.2578-2.009-.5067-2.978-.7289.445-.6934.898-1.4134 1.351-2.0889l.009-.0533Zm-2.444 4.0088c.978.2223 1.973.4623 2.987.7289-.392.6934-.792 1.4134-1.183 2.1689-1.022-.2667-2.026-.4978-3.004-.7289.373-.72.8-1.44 1.2-2.1689Zm-2.169 4.0445c.996.2133 1.991.4533 3.022.7022-.355.72-.702 1.4489-1.058 2.2133a133.2674 133.2674 0 0 0-3.031-.72c.356-.7288.711-1.4666 1.067-2.1688v-.0267Zm-1.929 4.0978c.996.2222 2.009.4622 3.031.7111-.311.72-.631 1.4666-.942 2.2311-1.022-.2578-2.044-.4978-3.049-.7111.32-.7378.676-1.4845.96-2.2045v-.0266Zm-2.133 5.1822c1.031.2133 2.053.4355 3.084.6667-.284.7377-.551 1.4844-.826 2.2666-1.023-.2311-2.054-.4533-3.076-.6578.267-.7466.551-1.5022.818-2.2666v-.0089Zm-1.84 5.3333c1.04.1956 2.08.3911 3.102.6045-.24.7466-.471 1.5111-.711 2.2933-1.022-.2133-2.062-.4-3.102-.5956.231-.7822.462-1.5466.711-2.2933v-.0089Zm-2.062 7.1111c.151-.5955.302-1.1733.462-1.7777 1.066.1866 2.106.3644 3.129.56-.151.5422-.303 1.0844-.436 1.6444-.062.2222-.124.4533-.178.6756-1.022-.1867-2.062-.3734-3.12-.5512.036-.1333.089-.3288.143-.5422v-.0089Zm-.889 3.7245 3.137.5066c-.195.7823-.373 1.5645-.542 2.3378l-3.146-.5066c.142-.72.328-1.52.524-2.3023l.027-.0355Zm-1.245 5.52c1.085.1511 2.134.32 3.156.4711-.178.7911-.329 1.5733-.48 2.3467l-3.156-.4623c.125-.7555.285-1.5377.454-2.32l.026-.0355Zm-1.084 5.5555 3.155.4623c-.151.7911-.284 1.5733-.409 2.3555l-3.146-.4533c.098-.7556.231-1.5378.373-2.3289l.027-.0356Zm-.889 5.6 3.155.4356c-.115.7911-.222 1.5822-.337 2.3644l-3.156-.4355c.053-.7467.169-1.5378.285-2.3111l.053-.0534Zm3.36-65.3155c.56 0 1.147 0 1.778.08a26.422 26.422 0 0 0-2.667 2.32h-1.778a27.6916 27.6916 0 0 1 2.614-2.3645l.053-.0355ZM139 20.338l1.733.0622a40.148 40.148 0 0 0-2.062 2.3555h-1.778c.72-.9244 1.423-1.7066 2.107-2.4177Zm-3.28 3.9022 1.698.0711a61.0482 61.0482 0 0 0-1.725 2.3556h-1.715c.578-.8889 1.146-1.68 1.706-2.4267h.036Zm-2.756 3.9022 1.672.08c-.498.7407-.996 1.523-1.494 2.3467l-1.671-.0534c.462-.8355.969-1.6266 1.458-2.3733h.035Zm-2.408 3.9111c.515 0 1.057.0622 1.635.1156-.427.7378-.889 1.5022-1.28 2.3022l-1.644-.0978c.391-.8.844-1.5733 1.253-2.32h.036Zm-2.107 3.9022 1.618.1423a54.0184 54.0184 0 0 0-1.129 2.3022l-1.627-.1333c.347-.7912.72-1.5645 1.102-2.3112h.036Zm-1.893 3.9378 1.608.1689c-.328.7378-.666 1.5022-.995 2.2933-.56-.0622-1.093-.1066-1.6-.1511.284-.7911.631-1.5644.987-2.3111Zm-2.294 5.44 1.6.1689c-.284.7556-.569 1.52-.844 2.3111l-1.6-.1689c.275-.7644.569-1.5377.844-2.3111Zm-1.911 5.4667 1.591.1778a66.6925 66.6925 0 0 0-.72 2.32l-1.591-.1689c.231-.7822.48-1.5734.72-2.3111v-.0178Zm-2.107 7.2711c.152-.6044.312-1.1911.48-1.7778l1.583.1867c-.16.5955-.329 1.2089-.489 1.7778 0 .1689-.089.3466-.125.5155l-1.591-.1866c.054-.1245.089-.3111.142-.4978v-.0178Zm-.888 3.7333 1.573.1956c-.187.7822-.373 1.5733-.542 2.3467l-1.583-.1956c.143-.7556.32-1.5467.525-2.3289l.027-.0178Zm-1.254 5.5289 1.591.2045c-.177.7822-.329 1.5644-.489 2.3466l-1.582-.1955c.125-.7645.294-1.5467.454-2.3378l.026-.0178Zm-1.111 5.5556 1.582.2133c-.142.7911-.284 1.5733-.409 2.3644l-1.573-.2222c.125-.7555.267-1.5466.4-2.3555Zm-.889 5.5733 1.582.2222c-.124.7911-.24 1.5822-.346 2.3645l-1.574-.2223c.125-.7555.196-1.5466.32-2.3466l.018-.0178Zm-.72 5.5111 1.582.2222c-.106.8-.186 1.5911-.257 2.3823l-1.583-.2311c.063-.7645.143-1.5645.24-2.3556l.018-.0178Zm-.524 5.52c.498.0889 1.031.16 1.573.24-.071.8-.124 1.6-.169 2.3911l-1.591-.24c.036-.7644.089-1.5644.169-2.3733l.018-.0178Zm-.329 5.5556 1.582.2489c0 .8089-.062 1.6177-.08 2.4177-.542-.0977-1.067-.1777-1.573-.2488 0-.7823.018-1.5912.053-2.3556l.018-.0622Zm-.089 5.5819 1.573.267v2.436l-1.582-.267c.009-.791-.009-1.6-.009-2.418l.018-.018Zm.169 5.636 1.582.275c.045.836.107 1.654.16 2.463l-1.573-.285c-.089-.791-.142-1.609-.187-2.435l.018-.018Zm.48 5.698 1.582.293c.098.889.205 1.68.32 2.498l-1.591-.302c-.133-.8-.24-1.627-.329-2.454l.018-.035Zm.844 5.786 1.6.32c.151.889.329 1.698.507 2.525l-1.6-.302c-.196-.809-.364-1.654-.551-2.525l.044-.018Zm.889 4.178 1.618.373c.213.889.444 1.778.684 2.596l-1.617-.356c-.267-.844-.498-1.706-.729-2.595l.044-.018Zm1.147 4.16c.498.133 1.049.285 1.635.427.294.889.605 1.822.889 2.666l-1.653-.417c-.284-.836-.613-1.734-.898-2.658l.027-.018Zm1.475 4.222 1.68.48c.4.969.8 1.911 1.245 2.818l-1.698-.471c-.453-.916-.862-1.849-1.227-2.827Zm3.663 7.343c-.596-.96-1.174-1.965-1.707-3.032l1.778.543c.542 1.049 1.129 2.062 1.778 3.022-.729-.187-1.316-.356-1.876-.533h.027Zm.995 1.528c.551.187 1.174.383 1.84.587a32.8228 32.8228 0 0 0 2.667 3.351l-1.902-.578a34.8312 34.8312 0 0 1-2.631-3.36h.026Zm10.454 9.529a25.7655 25.7655 0 0 1-6.16-4.444c.64.213 1.315.435 2.035.658a25.2583 25.2583 0 0 0 6.738 4.444l-2.613-.658Zm6.062-22.889c1.022.098 2.053.178 3.111.24.204.836.418 1.654.649 2.445-1.049-.062-2.08-.142-3.102-.222-.223-.809-.445-1.627-.649-2.463h-.009Zm1.378 4.774c1.031.106 2.062.204 3.111.284.275.845.569 1.662.889 2.462-1.04-.071-2.072-.16-3.085-.257-.355-.809-.622-1.636-.907-2.489h-.008Zm1.848 4.8c1.023.115 2.063.222 3.103.32.373.889.764 1.689 1.164 2.489-1.031-.08-2.053-.169-3.075-.285-.4-.809-.8-1.653-1.183-2.524h-.009Zm2.489 4.853c1.023.133 2.063.249 3.103.347.524.889 1.066 1.778 1.644 2.542-1.022-.071-2.044-.16-3.058-.276a39.8137 39.8137 0 0 1-1.68-2.613h-.009Zm6.125 7.689a29.122 29.122 0 0 1-2.605-2.711c1.031.133 2.054.249 3.085.338.759.915 1.576 1.782 2.444 2.595-.96-.053-1.946-.124-2.915-.222h-.009Zm8.649 5.218a9.0955 9.0955 0 0 1-1.005-.32c-1.56-.626-3.05-1.415-4.444-2.356.948.089 1.89.16 2.826.214 1.392.966 2.882 1.782 4.445 2.435-.596.027-1.2.036-1.813.027h-.009Z"
      opacity=".2" />
    <path fill="#263238"
      d="M144.742 52.8089a114.867 114.867 0 0 1 6.222-14.7378 162.9878 162.9878 0 0 0-18.257-2.8533 104.835 104.835 0 0 0-6.436 14.2222c4.951.6489 11.031 1.68 18.471 3.3689ZM125.196 52.5601a139.9008 139.9008 0 0 0-4.267 15.5911c5.333.8 11.618 1.9111 18.738 3.44a150.7102 150.7102 0 0 1 4.071-15.7334 187.6693 187.6693 0 0 0-18.542-3.2977ZM137.338 85.8401c.48-3.8934 1.052-7.6 1.715-11.12-7.111-1.52-13.404-2.6667-18.764-3.4222-.782 3.9911-1.449 8.2133-2 12.7111-.151 1.2622-.285 2.4888-.4 3.7066 6.675 1.3956 13.218 2.48 18.898 3.2978.151-1.6889.329-3.4044.551-5.1733ZM152.556 35.1291a80.2844 80.2844 0 0 1 9.715-13.9733 167.328 167.328 0 0 0-17.253-2.7823 72.861 72.861 0 0 0-10.542 13.7956c6.075.6646 12.11 1.6527 18.08 2.96ZM141.373 132.445c-6.16-.978-12.995-2.231-19.786-3.814a41.5549 41.5549 0 0 0 12.622 17.92c6.329 1.28 12.444 2.285 17.831 3.04a53.1879 53.1879 0 0 1-10.667-17.146ZM140.156 129.04a77.5473 77.5473 0 0 1-3.343-16c-6.009-.942-12.675-2.16-19.315-3.68a73.4941 73.4941 0 0 0 2.835 15.725c6.747 1.635 13.583 2.915 19.823 3.955ZM136.529 109.733a113.1535 113.1535 0 0 1 0-15.5374c-5.68-.8178-12.231-1.9022-18.933-3.2889a123.9082 123.9082 0 0 0-.311 15.1113c6.604 1.538 13.226 2.755 19.244 3.715ZM313.009 144c-2.489-34.809-25.609-61.5199-51.636-59.6621-4.88.3467-19.555 3.1733-22.497 3.3778-26.036 1.8666-45.12 31.5913-42.667 66.4003 2.453 34.809 25.609 61.529 51.636 59.671 4.88-.347 19.555-3.174 22.497-3.387 26.071-1.884 45.156-31.609 42.667-66.4Z" />
    <path fill="#FAFAFA"
      d="M270.397 210.362c26.031-1.861 45.116-31.589 42.626-66.4-2.489-34.811-25.609-61.5213-51.64-59.6599-26.03 1.8613-45.115 31.5899-42.626 66.4009 2.49 34.81 25.61 61.521 51.64 59.659Z"
      opacity=".2" />
    <path fill="#263238"
      d="m266.6 204.445-1.262-.151a33.471 33.471 0 0 1-10.667-3.44.2161.2161 0 0 1-.072-.055.2181.2181 0 0 1-.045-.08c-.009-.029-.012-.06-.009-.09.004-.03.013-.06.028-.086a.2342.2342 0 0 1 .055-.073.241.241 0 0 1 .079-.046.2283.2283 0 0 1 .177.012 32.8126 32.8126 0 0 0 10.525 3.395c.418.054.827.107 1.244.143.062.006.119.037.159.085.04.048.06.11.055.172a.2222.2222 0 0 1-.026.092.2306.2306 0 0 1-.061.074.228.228 0 0 1-.085.043.2339.2339 0 0 1-.095.005Zm17.973-3.822c-.041 0-.082-.01-.118-.03a.2364.2364 0 0 1-.086-.086.2256.2256 0 0 1-.03-.087.22.22 0 0 1 .007-.092.226.226 0 0 1 .041-.082c.02-.024.044-.044.071-.059.542-.293 1.075-.613 1.6-.942a.2371.2371 0 0 1 .085-.032.2373.2373 0 0 1 .174.044c.025.018.045.041.061.068.016.025.027.054.033.084.005.03.004.061-.002.091a.2333.2333 0 0 1-.037.082.2293.2293 0 0 1-.065.063c-.534.329-1.076.649-1.618.951a.2833.2833 0 0 1-.116 0v.027Zm-33.831-2.125a.2158.2158 0 0 1-.133 0c-.516-.347-1.031-.711-1.529-1.093a.2117.2117 0 0 1-.05-.073.2187.2187 0 0 1 0-.174.2027.2027 0 0 1 .05-.073.2318.2318 0 0 1 .149-.092c.06-.01.121.004.171.038.498.374 1.004.738 1.511 1.085.051.034.086.087.097.147.012.06-.001.122-.035.173a.2234.2234 0 0 1-.11.051.2184.2184 0 0 1-.121-.016v.027Zm39.227-1.538a.2316.2316 0 0 1-.104-.022.2344.2344 0 0 1-.083-.067.2374.2374 0 0 1-.065-.164c0-.061.023-.12.065-.164a43.527 43.527 0 0 0 7.591-8.098.2465.2465 0 0 1 .149-.065.2405.2405 0 0 1 .234.34 44.5854 44.5854 0 0 1-7.68 8.187.2237.2237 0 0 1-.107.027v.026Zm10.213-12.071a.3233.3233 0 0 1-.124 0 .2293.2293 0 0 1-.066-.062.2281.2281 0 0 1-.036-.083.2103.2103 0 0 1-.002-.09c.005-.03.016-.059.033-.085a65.56 65.56 0 0 0 8.631-26.346.221.221 0 0 1 .027-.087.2343.2343 0 0 1 .059-.07.2217.2217 0 0 1 .081-.041c.029-.008.06-.011.091-.007.03.002.061.011.088.025.027.014.052.034.071.059a.2194.2194 0 0 1 .045.174 65.9126 65.9126 0 0 1-8.693 26.48c-.02.038-.049.07-.085.093a.245.245 0 0 1-.12.04Zm-63.404-1.244c-.039 0-.077-.01-.112-.028a.2356.2356 0 0 1-.084-.079 71.6043 71.6043 0 0 1-9.858-26.107.2272.2272 0 0 1 0-.09c.006-.03.018-.059.036-.084.017-.025.04-.046.066-.062a.2165.2165 0 0 1 .085-.03c.06-.011.122.003.172.038.05.035.084.088.095.148a71.048 71.048 0 0 0 9.778 25.938c.017.026.029.054.035.084.006.031.006.062-.001.092a.2142.2142 0 0 1-.037.083.2234.2234 0 0 1-.069.061.2011.2011 0 0 1-.106.036Zm-10.48-30.64a.2437.2437 0 0 1-.153-.06.2421.2421 0 0 1-.078-.145c-.107-1.004-.205-2.026-.276-3.04-.133-1.902-.204-3.831-.204-5.724v-2.445a.2458.2458 0 0 1 .075-.161.2496.2496 0 0 1 .165-.07c.062.003.121.029.164.074.043.044.067.104.067.166 0 .809-.045 1.618-.045 2.436 0 1.884.071 3.795.205 5.689.08 1.013.169 2.026.275 3.022a.2194.2194 0 0 1-.045.174.2231.2231 0 0 1-.159.084h.009Zm82.48-13.111a.2382.2382 0 0 1-.155-.058.2273.2273 0 0 1-.076-.147c-.08-.613-.16-1.226-.258-1.84a.2347.2347 0 0 1 .042-.174c.037-.05.092-.083.153-.092.062-.01.124.005.174.042.05.037.084.092.093.153.089.613.178 1.236.258 1.858a.2397.2397 0 0 1-.051.169.2414.2414 0 0 1-.154.089h-.026Zm-82.667-2.72a.2412.2412 0 0 1-.156-.083.2386.2386 0 0 1-.057-.166c.062-.631.124-1.254.195-1.867.009-.06.041-.115.089-.153a.2397.2397 0 0 1 .169-.051c.031.003.06.012.087.027.027.015.05.035.069.059.019.024.033.051.042.081.008.029.01.06.007.09-.072.614-.134 1.236-.187 1.849a.2428.2428 0 0 1-.086.159c-.048.04-.11.06-.172.055Zm81.538-3.716a.2467.2467 0 0 1-.231-.187 74.229 74.229 0 0 0-3.12-10.666.2312.2312 0 0 1 .004-.179c.012-.028.03-.053.052-.075a.2274.2274 0 0 1 .077-.048.2143.2143 0 0 1 .09-.016c.031.001.061.007.089.02.028.012.053.03.074.052.022.022.038.048.049.077a74.9932 74.9932 0 0 1 3.156 10.738c.006.029.007.06.002.09a.229.229 0 0 1-.034.084.217.217 0 0 1-.063.065.2123.2123 0 0 1-.083.036l-.062.009Zm-4.925-15.049a.2212.2212 0 0 1-.204-.133c-4.169-9.173-10.009-16.711-16.889-21.8046a.2424.2424 0 0 1-.061-.0669.2358.2358 0 0 1-.031-.0851.2302.2302 0 0 1 .005-.0905.2271.2271 0 0 1 .105-.1428.2294.2294 0 0 1 .085-.0307.235.235 0 0 1 .091.0042.2405.2405 0 0 1 .082.0385c6.951 5.1379 12.844 12.7379 17.04 21.9819.024.057.026.121.004.179a.2357.2357 0 0 1-.12.132l-.107.018Zm-71.884-1.138h-.089a.2351.2351 0 0 1-.131-.128.237.237 0 0 1-.002-.183c3.875-9.555 9.671-17.1997 16.764-22.0974a.2317.2317 0 0 1 .173-.035.23.23 0 0 1 .147.0972.2361.2361 0 0 1 .036.1771.2423.2423 0 0 1-.098.1518c-7.013 4.8443-12.747 12.4443-16.587 21.8843a.2237.2237 0 0 1-.087.098.2222.2222 0 0 1-.126.035Zm20.676-24.3818a.2372.2372 0 0 1-.124-.0326.2397.2397 0 0 1-.09-.0918.242.242 0 0 1-.023-.0878.23.23 0 0 1 .012-.0901.2202.2202 0 0 1 .045-.0785.2357.2357 0 0 1 .073-.0547 31.2543 31.2543 0 0 1 10.72-3.2623.2318.2318 0 0 1 .171.0489.235.235 0 0 1 .059.0692.2397.2397 0 0 1 .028.0864.2308.2308 0 0 1-.008.0905.2252.2252 0 0 1-.041.0807.241.241 0 0 1-.069.0588.2343.2343 0 0 1-.087.0278 31.0236 31.0236 0 0 0-10.56 3.2089.2377.2377 0 0 1-.106.0266Zm17.164-3.28c-.613-.0622-1.236-.1066-1.849-.1244a.2371.2371 0 0 1-.139-.083.237.237 0 0 1-.055-.1526c0-.0556.019-.1096.055-.1526a.237.237 0 0 1 .139-.0829c.622 0 1.262.0711 1.876.1333a.231.231 0 0 1 .089.025.232.232 0 0 1 .073.0582c.019.0241.034.052.043.082.009.03.012.0615.008.0926a.2426.2426 0 0 1-.082.1471.2385.2385 0 0 1-.158.0573ZM268.778 198.969c-.916-.024-1.83-.099-2.738-.222a28.915 28.915 0 0 1-10.56-3.751.2458.2458 0 0 1-.109-.142.2441.2441 0 0 1 .02-.178.2265.2265 0 0 1 .059-.071.2453.2453 0 0 1 .082-.042c.03-.008.061-.01.092-.006s.06.014.087.03c3.19 1.904 6.724 3.16 10.4 3.698.884.122 1.774.196 2.667.222.031 0 .062.006.09.018.029.012.055.03.076.053.022.022.039.049.05.078.011.029.016.06.015.091a.2455.2455 0 0 1-.073.155.2408.2408 0 0 1-.158.067Zm4.649-.311a.23.23 0 0 1-.164-.068.2318.2318 0 0 1-.068-.163c0-.062.025-.12.068-.164a.2332.2332 0 0 1 .164-.067c8.062-1.307 15.546-6.774 21.075-15.387l.48-.764a.2265.2265 0 0 1 .059-.071.2388.2388 0 0 1 .083-.041.2429.2429 0 0 1 .093-.003c.03.006.059.017.085.035.027.015.05.036.068.06.019.025.032.053.039.083.008.03.009.061.005.091a.2493.2493 0 0 1-.032.086c-.16.266-.329.524-.489.782-5.6 8.72-13.2 14.222-21.395 15.591h-.071Zm-21.689-6.222a.2937.2937 0 0 1-.142-.045c-.489-.382-.978-.782-1.449-1.191a.23.23 0 0 1-.082-.159.2328.2328 0 0 1 .214-.251.229.229 0 0 1 .17.055c.471.408.951.8 1.431 1.173.025.018.046.041.062.068.015.027.026.056.03.087.004.031.002.062-.006.092a.2207.2207 0 0 1-.042.082.2184.2184 0 0 1-.151.053l-.035.036Zm-12.747-15.903a.2485.2485 0 0 1-.119-.034.237.237 0 0 1-.085-.09 69.505 69.505 0 0 1-7.458-26.88.2428.2428 0 0 1 .057-.167c.04-.046.096-.075.156-.082.061-.003.121.018.167.058.046.039.075.095.082.155a69.116 69.116 0 0 0 7.413 26.667c.026.055.031.117.012.175a.2382.2382 0 0 1-.109.136.2525.2525 0 0 1-.116.062Zm63.111-11.377h-.053a.2163.2163 0 0 1-.085-.037.2154.2154 0 0 1-.063-.068.2302.2302 0 0 1-.03-.088c-.003-.031 0-.062.009-.092.133-.595.267-1.209.382-1.778a.243.243 0 0 1 .035-.085.2473.2473 0 0 1 .064-.065.2658.2658 0 0 1 .085-.036c.03-.006.061-.006.092 0 .03.006.059.017.085.034.026.017.048.039.065.065.017.025.03.054.036.084.006.031.006.062 0 .092-.124.614-.257 1.227-.391 1.831a.2388.2388 0 0 1-.102.111.2585.2585 0 0 1-.147.032h.018Zm1.129-6.436a.2465.2465 0 0 1-.157-.091.2404.2404 0 0 1-.047-.176c.368-2.948.552-5.917.551-8.888v-2.24c0-.063.024-.122.067-.167a.2373.2373 0 0 1 .164-.073c.061.002.12.026.164.069.045.043.071.1.076.162v2.249c.002 2.995-.185 5.988-.56 8.96a.2318.2318 0 0 1-.031.088.2485.2485 0 0 1-.064.069.2336.2336 0 0 1-.087.038.2477.2477 0 0 1-.094 0h.018Zm-71.849-13.635a.2304.2304 0 0 1-.09-.015.257.257 0 0 1-.076-.05.218.218 0 0 1-.05-.077.2274.2274 0 0 1-.015-.09v-.888c-.002-3.457.245-6.909.738-10.329a.217.217 0 0 1 .031-.086.233.233 0 0 1 .062-.067.214.214 0 0 1 .082-.039.233.233 0 0 1 .091-.004.2335.2335 0 0 1 .154.093c.018.025.031.053.038.083.007.029.009.06.004.091-.493 3.397-.74 6.825-.738 10.258v.888c0 .062-.024.121-.067.164a.236.236 0 0 1-.164.068Zm72.062-2.196a.2371.2371 0 0 1-.155-.064.2443.2443 0 0 1-.076-.149 68.1034 68.1034 0 0 0-7.938-26.534.2388.2388 0 0 1-.023-.179.2322.2322 0 0 1 .042-.081.2238.2238 0 0 1 .07-.06c.056-.028.12-.034.18-.016.06.019.11.059.14.114a68.677 68.677 0 0 1 8 26.711.2373.2373 0 0 1-.054.172.2386.2386 0 0 1-.159.086h-.027Zm-70.515-13.556h-.054a.25.25 0 0 1-.144-.107.2553.2553 0 0 1-.033-.177c.133-.613.275-1.218.426-1.822a.253.253 0 0 1 .039-.083.2367.2367 0 0 1 .068-.062.2452.2452 0 0 1 .086-.03.2376.2376 0 0 1 .092.006c.059.017.11.055.141.108a.241.241 0 0 1 .028.176c-.151.596-.294 1.2-.427 1.778a.2252.2252 0 0 1-.068.152.2267.2267 0 0 1-.154.061Zm7.715-18.897a.2881.2881 0 0 1-.124 0 .2475.2475 0 0 1-.069-.064.2497.2497 0 0 1-.038-.085.229.229 0 0 1 0-.094c.006-.031.018-.06.036-.086 5.884-8.987 13.884-14.4447 22.524-15.3691.055.0106.104.04.14.083a.2413.2413 0 0 1 .054.1525.2414.2414 0 0 1-.054.1526.2426.2426 0 0 1-.14.083c-8.498.8889-16.373 6.284-22.178 15.156a.222.222 0 0 1-.151.071Zm43.094-8.525a.2414.2414 0 0 1-.151-.053c-.489-.382-.978-.765-1.476-1.12a.231.231 0 0 1-.053-.32c.017-.026.04-.047.066-.064a.2307.2307 0 0 1 .263.011c.497.355.995.737 1.493 1.128.042.045.065.104.065.165 0 .061-.023.12-.065.164a.223.223 0 0 1-.142.089Zm-5.44-3.5553a.28.28 0 0 1-.116 0 27.7411 27.7411 0 0 0-9.191-3.0311c-.453-.0623-.889-.1067-1.36-.1512a.2291.2291 0 0 1-.087-.0242.2227.2227 0 0 1-.071-.0558.2405.2405 0 0 1-.045-.079.2278.2278 0 0 1-.01-.0899.2366.2366 0 0 1 .085-.1589.2405.2405 0 0 1 .173-.0544c.453 0 .888.0889 1.377.1511a28.4406 28.4406 0 0 1 9.351 3.0756.2343.2343 0 0 1 .097.1128.2398.2398 0 0 1-.203.3316v-.0266ZM267.133 193.262h-.266a23.7437 23.7437 0 0 1-10.356-4.24.2393.2393 0 0 1-.098-.151.2399.2399 0 0 1 .036-.177.2294.2294 0 0 1 .064-.064.2323.2323 0 0 1 .084-.032c.03-.005.061-.004.091.003.029.007.057.021.081.039a23.305 23.305 0 0 0 10.16 4.16h.258c.031.003.061.013.089.028.027.016.051.037.07.062.02.024.033.053.041.084.008.03.009.062.004.093a.2418.2418 0 0 1-.091.148.2379.2379 0 0 1-.167.047Zm17.014-6.044a.2343.2343 0 0 1-.094-.021.2163.2163 0 0 1-.075-.059.227.227 0 0 1-.051-.075.232.232 0 0 1 0-.179.2377.2377 0 0 1 .051-.075c.444-.4.889-.835 1.324-1.289a.2417.2417 0 0 1 .165-.065c.061 0 .12.023.164.065.043.046.066.107.066.169a.246.246 0 0 1-.066.169c-.444.453-.889.889-1.351 1.307a.2175.2175 0 0 1-.133.053Zm-31.111-1.138a.2177.2177 0 0 1-.16-.071c-.445-.418-.889-.889-1.343-1.315a.234.234 0 0 1-.063-.167c.001-.061.027-.12.072-.162a.2307.2307 0 0 1 .167-.064c.061.002.12.028.162.073.436.453.889.888 1.325 1.297.041.045.065.104.065.165 0 .061-.024.12-.065.164a.2207.2207 0 0 1-.196.08h.036Zm35.493-3.724a.3096.3096 0 0 1-.142 0 .2417.2417 0 0 1-.065-.165c0-.061.023-.12.065-.164.506-.693 1.013-1.431 1.502-2.178a47.7747 47.7747 0 0 0 3.902-7.529.2154.2154 0 0 1 .049-.077.2146.2146 0 0 1 .074-.053.2504.2504 0 0 1 .089-.02c.031 0 .062.005.09.017.058.025.103.072.126.13.023.058.023.123-.001.181a47.8695 47.8695 0 0 1-3.938 7.6c-.489.764-1.004 1.502-1.52 2.204a.2351.2351 0 0 1-.125.071.2393.2393 0 0 1-.142-.017h.036Zm-46.756-13.262a.233.233 0 0 1-.133-.037.2251.2251 0 0 1-.089-.106 65.7073 65.7073 0 0 1-4.64-19.982c-.115-1.662-.178-3.351-.178-5.004v-2.48c0-.134.089-.249.24-.231a.2412.2412 0 0 1 .232.24c0 .826-.045 1.653-.045 2.471 0 1.644.053 3.315.178 4.969a65.0382 65.0382 0 0 0 4.604 19.84c.024.056.024.12.001.176a.237.237 0 0 1-.125.126.1836.1836 0 0 1-.08.018h.035Zm53.769-.889h-.098a.2329.2329 0 0 1-.162-.203.2557.2557 0 0 1 .011-.091 61.6451 61.6451 0 0 0 2.667-18.329c0-1.644-.062-3.306-.178-4.96a70.1164 70.1164 0 0 0-.453-4.311.2312.2312 0 0 1 .046-.172.2312.2312 0 0 1 .326-.044c.05.037.082.093.09.154.205 1.431.356 2.898.453 4.338.125 1.662.178 3.342.178 4.995a62.3058 62.3058 0 0 1-2.666 18.463.2343.2343 0 0 1-.096.125c-.045.029-.1.041-.153.035h.035Zm-58.195-31.111a.2305.2305 0 0 1-.156-.087.2406.2406 0 0 1-.042-.081.248.248 0 0 1-.007-.09 60.2599 60.2599 0 0 1 2.214-11.005.219.219 0 0 1 .038-.082.214.214 0 0 1 .069-.058.2231.2231 0 0 1 .088-.025c.03-.001.061.003.089.014.059.017.109.056.139.109.03.054.037.117.021.176a60.042 60.042 0 0 0-2.258 10.924.2283.2283 0 0 1-.084.13.2357.2357 0 0 1-.147.048l.036.027Zm55.111-14.427a.2242.2242 0 0 1-.128-.034.2181.2181 0 0 1-.086-.099c-.266-.569-.533-1.129-.808-1.68a.2314.2314 0 0 1-.024-.088.2482.2482 0 0 1 .012-.09.241.241 0 0 1 .046-.079.26.26 0 0 1 .072-.055.2494.2494 0 0 1 .088-.023c.03-.002.061.002.09.012a.2366.2366 0 0 1 .133.118c.276.551.551 1.12.809 1.689a.2307.2307 0 0 1 .012.178.2269.2269 0 0 1-.046.078.2266.2266 0 0 1-.072.055l-.098.018Zm-51.342-.933h-.089a.2424.2424 0 0 1-.127-.125.2433.2433 0 0 1-.007-.178c.24-.586.48-1.164.738-1.733a.2377.2377 0 0 1 .051-.075.219.219 0 0 1 .164-.062c.03.001.06.008.087.021.056.027.099.075.121.133a.246.246 0 0 1-.005.179c-.249.557-.489 1.126-.72 1.706a.2416.2416 0 0 1-.116.098.2439.2439 0 0 1-.151.009l.054.027Zm48.266-4.827a.2472.2472 0 0 1-.116-.027.2413.2413 0 0 1-.088-.08 43.401 43.401 0 0 0-6.925-8.684.2257.2257 0 0 1-.052-.074.2266.2266 0 0 1-.02-.089.2255.2255 0 0 1 .015-.089.2274.2274 0 0 1 .048-.077.249.249 0 0 1 .075-.053.2404.2404 0 0 1 .088-.02c.031 0 .061.005.09.016.028.011.054.027.076.048a43.6885 43.6885 0 0 1 7.005 8.773c.016.027.027.056.031.086a.233.233 0 0 1-.043.174.243.243 0 0 1-.068.06.2037.2037 0 0 1-.084.024.1783.1783 0 0 1-.085-.015l.053.027Zm-36.489-11.698a.2207.2207 0 0 1-.104-.021.2253.2253 0 0 1-.082-.068.2453.2453 0 0 1-.042-.082.2376.2376 0 0 1-.006-.092c.004-.03.015-.06.031-.086.015-.027.036-.05.061-.069a21.4218 21.4218 0 0 1 11.556-4.577c1.352-.09 2.71-.043 4.053.142 3.849.597 7.495 2.123 10.622 4.444a.241.241 0 0 1 .054.329.2521.2521 0 0 1-.155.09.2433.2433 0 0 1-.174-.037 23.4585 23.4585 0 0 0-10.409-4.355 19.099 19.099 0 0 0-3.956-.125 20.9334 20.9334 0 0 0-11.289 4.445.2099.2099 0 0 1-.102.045.2107.2107 0 0 1-.111-.01l.053.027ZM269.267 187.831c-.556-.013-1.111-.058-1.662-.133a19.599 19.599 0 0 1-10.036-4.898.227.227 0 0 1-.051-.075.2283.2283 0 0 1 0-.178.242.242 0 0 1 .051-.076.242.242 0 0 1 .164-.065c.062 0 .12.024.165.065a19.1545 19.1545 0 0 0 9.778 4.792c.533.072 1.07.113 1.609.124.03 0 .061.006.089.018.028.013.053.031.074.053a.2232.2232 0 0 1 .059.169.2324.2324 0 0 1-.08.15.2339.2339 0 0 1-.16.054Zm4.586-.72a.231.231 0 0 1-.136-.045.2362.2362 0 0 1-.086-.115.2503.2503 0 0 1-.011-.09.2411.2411 0 0 1 .025-.088.2329.2329 0 0 1 .137-.115c4.169-1.404 8.089-4.818 11.334-9.867a43.7675 43.7675 0 0 0 5.084-11.324.2337.2337 0 0 1 .109-.139.235.235 0 0 1 .176-.021c.059.019.109.06.139.114.03.055.037.119.021.179a44.091 44.091 0 0 1-5.138 11.44c-3.307 5.147-7.307 8.623-11.556 10.063l-.098.008Zm-19.431-7.555a.2296.2296 0 0 1-.093-.021.2295.2295 0 0 1-.076-.059c-.408-.471-.808-.96-1.191-1.458a.2314.2314 0 0 1-.064-.16c0-.06.023-.117.064-.16a.2417.2417 0 0 1 .165-.065c.061 0 .12.023.164.065.382.498.782.978 1.174 1.431.021.022.039.047.05.076a.2283.2283 0 0 1 0 .178.2242.2242 0 0 1-.05.075.2325.2325 0 0 1-.061.064.2198.2198 0 0 1-.082.034Zm-9.449-18.062c-.05 0-.099-.017-.139-.047a.2395.2395 0 0 1-.083-.122 60.2237 60.2237 0 0 1-2.311-12.756c-.107-1.546-.169-3.102-.169-4.622-.008-3.498.289-6.99.889-10.436a.2582.2582 0 0 1 .104-.143c.05-.034.111-.05.172-.043.06.013.114.049.148.1a.236.236 0 0 1 .038.175c-.6 3.416-.898 6.879-.889 10.347a66.7 66.7 0 0 0 .16 4.587 60.0976 60.0976 0 0 0 2.303 12.666c.016.059.008.122-.022.176a.2317.2317 0 0 1-.138.109l-.063.009Zm47.6-14.223a.246.246 0 0 1-.164-.069.2542.2542 0 0 1-.076-.162c0-.613-.053-1.235-.097-1.857a.2411.2411 0 0 1 .057-.167.24.24 0 0 1 .156-.082c.031-.003.062.001.092.011a.2315.2315 0 0 1 .135.121c.013.028.021.059.022.09.041.622.077 1.244.107 1.867.002.062-.02.122-.061.169-.042.046-.1.075-.162.079h-.009Zm-.604-6.506c-.056 0-.11-.019-.152-.055a.2309.2309 0 0 1-.079-.141 60.1834 60.1834 0 0 0-2.667-10.826.2493.2493 0 0 1-.019-.093.2413.2413 0 0 1 .02-.092.2468.2468 0 0 1 .055-.077.2292.2292 0 0 1 .081-.048c.03-.01.062-.015.093-.012.032.002.063.011.091.026.028.015.053.035.072.06.02.025.035.054.043.084a59.5711 59.5711 0 0 1 2.666 10.907.2403.2403 0 0 1-.195.267h-.009Zm-47.556-11.556h-.062a.23.23 0 0 1-.16-.284 45.5416 45.5416 0 0 1 4.178-10.418.2293.2293 0 0 1 .135-.113.2335.2335 0 0 1 .176.015c.027.015.051.035.071.059.019.025.033.053.041.082a.22.22 0 0 1 .007.092.22.22 0 0 1-.03.087 45.6568 45.6568 0 0 0-4.133 10.32.2346.2346 0 0 1-.079.133.229.229 0 0 1-.144.054v-.027Zm43.2-3.626c-.045 0-.09-.014-.128-.039a.2396.2396 0 0 1-.085-.104c-4.604-10.373-11.689-17.466-18.942-18.986a.2465.2465 0 0 1-.083-.036.243.243 0 0 1-.063-.065.2173.2173 0 0 1-.033-.084.2323.2323 0 0 1 .001-.091c.007-.03.019-.058.036-.083a.2297.2297 0 0 1 .149-.096c.03-.006.061-.005.091.001 7.395 1.547 14.604 8.738 19.271 19.254.013.027.02.057.022.087a.2285.2285 0 0 1-.063.165.2403.2403 0 0 1-.075.05l-.098.027Zm-36.524-10.667a.2652.2652 0 0 1-.142-.045.24.24 0 0 1-.054-.328c.383-.516.774-1.014 1.165-1.476a.2374.2374 0 0 1 .164-.065c.061 0 .12.023.165.065a.227.227 0 0 1 .051.075.251.251 0 0 1 .017.089c0 .031-.006.061-.017.09a.2377.2377 0 0 1-.051.075c-.382.462-.765.951-1.138 1.458a.2325.2325 0 0 1-.071.061.2503.2503 0 0 1-.089.028v-.027ZM268.395 182.222c-3.04-.418-6.391-2.515-9.448-5.902a.231.231 0 0 1-.06-.168.235.235 0 0 1 .077-.161.236.236 0 0 1 .168-.059c.062.003.12.031.161.077 2.987 3.298 6.222 5.333 9.165 5.751a.23.23 0 0 1 .15.089c.037.048.053.109.045.169-.009.06-.04.115-.088.153a.2422.2422 0 0 1-.17.051Zm-12.168-9.502c-.039 0-.078-.01-.112-.028a.2356.2356 0 0 1-.084-.079c-.338-.506-.684-1.04-1.013-1.582a.217.217 0 0 1-.031-.086.227.227 0 0 1 .004-.09.253.253 0 0 1 .039-.083.2483.2483 0 0 1 .068-.061.2353.2353 0 0 1 .085-.031.2312.2312 0 0 1 .091.005c.03.007.058.02.083.039.024.018.045.041.061.067.329.533.657 1.058 1.004 1.565.034.05.047.112.035.172a.238.238 0 0 1-.097.148.2721.2721 0 0 1-.133 0v.044Zm25.635-.64h-.107a.239.239 0 0 1-.113-.14.235.235 0 0 1 .016-.18c.293-.533.577-1.084.844-1.644a.241.241 0 0 1 .132-.121.241.241 0 0 1 .179.005c.057.029.1.078.121.137.022.06.02.125-.005.183-.276.569-.569 1.129-.889 1.662a.244.244 0 0 1-.084.045.2472.2472 0 0 1-.094.009v.044Zm2.622-5.973h-.08a.2315.2315 0 0 1-.135-.121.217.217 0 0 1-.022-.09.2435.2435 0 0 1 .015-.092 47.8132 47.8132 0 0 0 2.293-10.924c.003-.03.011-.06.025-.087a.203.203 0 0 1 .056-.071.234.234 0 0 1 .078-.045c.029-.009.06-.013.09-.01.062.006.119.037.159.085.04.048.06.11.055.172a48.3443 48.3443 0 0 1-2.32 10.978.246.246 0 0 1-.083.113.237.237 0 0 1-.131.047v.045Zm-35.617-12.436a.2416.2416 0 0 1-.232-.195c-.293-1.778-.506-3.556-.631-5.334a57.018 57.018 0 0 1-.16-4.24 49.8872 49.8872 0 0 1 3.236-18.133.2384.2384 0 0 1 .302-.133c.029.01.055.027.078.048.022.021.04.046.052.075a.2266.2266 0 0 1 .003.179 49.397 49.397 0 0 0-3.2 17.964c0 1.387.054 2.8.152 4.214.124 1.777.337 3.555.631 5.253.006.03.006.061 0 .091a.2189.2189 0 0 1-.036.083.2172.2172 0 0 1-.066.062.2353.2353 0 0 1-.085.031l-.044.035Zm38.177-3.191a.2417.2417 0 0 1-.164-.073.242.242 0 0 1-.067-.167v-.631c0-1.378-.053-2.791-.151-4.205a51.5583 51.5583 0 0 0-6.524-21.848.2338.2338 0 0 1-.024-.179c.009-.03.023-.058.042-.082a.2025.2025 0 0 1 .071-.059.2165.2165 0 0 1 .174-.023c.029.008.057.022.08.042.023.019.043.043.057.069a52.093 52.093 0 0 1 6.586 22.089c.098 1.414.151 2.845.151 4.231v.578c.004.033.001.066-.009.097-.01.031-.026.06-.048.084a.2222.2222 0 0 1-.079.057.238.238 0 0 1-.095.02Zm-33.777-28.596h-.107a.2293.2293 0 0 1-.113-.135.2297.2297 0 0 1 .015-.176c.311-.569.64-1.129.969-1.671a21.988 21.988 0 0 1 6.302-6.853.2401.2401 0 0 1 .179-.032c.062.013.116.05.15.103.017.026.028.054.033.084.005.03.005.061-.002.091a.2281.2281 0 0 1-.036.083.2438.2438 0 0 1-.066.062 21.326 21.326 0 0 0-6.16 6.711c-.329.525-.649 1.085-.96 1.645a.2164.2164 0 0 1-.09.071.2142.2142 0 0 1-.114.017Zm13.377-10.062a7.469 7.469 0 0 0-1.546-.044h-.258a.2326.2326 0 0 1-.105-.003.2472.2472 0 0 1-.094-.048.234.234 0 0 1-.064-.082.2412.2412 0 0 1 0-.205.2375.2375 0 0 1 .064-.083c.028-.023.06-.039.094-.047.034-.009.07-.01.105-.003h.267a7.8585 7.8585 0 0 1 1.644.044c.061 0 .12.024.163.068.044.043.068.102.068.163a.2308.2308 0 0 1-.231.231l-.107.009Z" />
    <path fill="#7C6EF6"
      d="M331.258 142.222c-3.058-42.8087-31.485-75.6532-63.494-73.3598-1.075.0711-2.142.1955-3.2.3466h-.071c-32 2.2934-55.475 38.8442-52.444 81.6532 3.031 42.809 31.493 75.654 63.502 73.369 1.076-.08 2.142-.196 3.191-.356h.071c32.036-2.302 55.511-38.862 52.445-81.653Zm-10.143 1.04c.64 9.2-3.893 17.165-10.408 18.942-7.067-.346-13.12-7.848-13.787-17.44-.631-9.2 3.902-17.164 10.418-18.933 7.066.329 13.111 7.822 13.777 17.413v.018Zm-29.226-57.1732c6.889 4.7023 9.849 15.8132 6.613 24.8092-1.849 5.111-5.289 8.435-9.191 9.502a11.5602 11.5602 0 0 1-5.893-2.08c-6.889-4.702-9.849-15.804-6.605-24.8 1.84-5.1112 5.334-8.4445 9.182-9.5023 2.119.1299 4.16.847 5.894 2.0711Zm-25.058 72.8892c-.221-.814-.19-1.676.089-2.471.087-.248.203-.483.347-.703.483.543.812 1.205.951 1.918.14.714.084 1.451-.16 2.136-.091.245-.207.481-.347.702a3.4912 3.4912 0 0 1-.898-1.582h.018Zm2.667-12.356a5.4935 5.4935 0 0 1 1.777-4.702 5.403 5.403 0 0 1 1.882 1.918c.455.788.704 1.679.723 2.589.098.868-.012 1.748-.322 2.565-.309.818-.808 1.55-1.456 2.137a5.4264 5.4264 0 0 1-1.878-1.898 5.4187 5.4187 0 0 1-.744-2.564l.018-.045Zm7.049-12.551c.216.814.185 1.675-.089 2.471-.091.246-.207.481-.347.702a4.0369 4.0369 0 0 1-.952-1.918 4.0402 4.0402 0 0 1 .161-2.135c.088-.246.205-.482.347-.702.418.444.715.989.862 1.582h.018Zm-54.311 15.733c-.632-9.2 3.902-17.164 10.417-18.942 7.111.347 13.111 7.849 13.778 17.44.64 9.2-3.893 17.165-10.409 18.934-7.084-.347-13.138-7.84-13.804-17.432h.018Zm29.244 57.156c-6.889-4.702-9.849-15.813-6.605-24.809 1.84-5.111 5.334-8.435 9.192-9.502 2.118.139 4.157.858 5.893 2.08 6.889 4.702 9.849 15.804 6.604 24.8-1.84 5.12-5.288 8.444-9.191 9.502-2.124-.129-4.17-.846-5.911-2.071h.018Zm14.782-73.022c.379.752.528 1.599.427 2.435a3.5631 3.5631 0 0 1-.551 1.538 2.9397 2.9397 0 0 1-.56-.764 4.129 4.129 0 0 1-.427-2.436c.062-.548.251-1.075.551-1.538.218.227.401.484.542.765h.018Zm-3.609 13.262c.072.826-.127 1.653-.569 2.356a3.9782 3.9782 0 0 1-1.006-2.291c-.08-.852.117-1.707.562-2.438.601.649.954 1.489.995 2.373h.018Zm-3.351-52.3645c4.445 8.4715 3.058 19.8755-3.12 25.4575a11.5534 11.5534 0 0 1-4.738 2.667c-4.302-.213-8.542-3.084-11.244-8.231-4.444-8.48-3.058-19.8757 3.12-25.4668a11.7307 11.7307 0 0 1 4.738-2.6667c4.284.2222 8.524 3.0845 11.226 8.24h.018ZM277.08 159.12a4.1045 4.1045 0 0 1-.453-2.007c.022-.697.22-1.377.577-1.975.225.225.413.483.56.764.388.749.537 1.599.427 2.436-.062.548-.25 1.075-.551 1.538a3.2565 3.2565 0 0 1-.542-.765l-.018.009Zm3.609-13.271c-.07-.825.126-1.65.56-2.356.614.646.973 1.492 1.013 2.383.069.824-.128 1.649-.56 2.355a3.6943 3.6943 0 0 1-.995-2.382h-.018Zm3.36 52.373c-4.445-8.471-3.049-19.875 3.129-25.458a11.5477 11.5477 0 0 1 4.737-2.666c4.294.213 8.534 3.084 11.245 8.231 4.444 8.48 3.049 19.875-3.129 25.467a11.6325 11.6325 0 0 1-4.738 2.666c-4.293-.24-8.533-3.093-11.244-8.24Z" />
    <path fill="#FAFAFA"
      d="M267.764 68.8446c-32 2.2844-55.484 38.8444-52.444 81.6444 3.04 42.8 31.484 75.653 63.493 73.369 32.009-2.285 55.485-38.845 52.445-81.653-3.04-42.8093-31.485-75.6537-63.494-73.3604Zm9.014 24.6756c3.235-9.0045 11.449-12.4445 18.346-7.7778 6.898 4.6666 9.849 15.8046 6.605 24.7996-3.245 8.996-11.458 12.445-18.347 7.778-6.889-4.667-9.831-15.804-6.604-24.7998Zm8.755 51.9998c.125 1.778-.889 3.307-2.195 3.405-1.334.088-2.516-1.289-2.667-3.076-.151-1.787.889-3.307 2.187-3.404 1.298-.098 2.569 1.288 2.693 3.075h-.018Zm-10.249-12.329c.119-.457.369-.869.72-1.185a2.417 2.417 0 0 1 1.254-.593c.449-.022.893.107 1.262.365.629.47 1.072 1.147 1.253 1.911.221.814.19 1.675-.089 2.471-.124.45-.378.853-.728 1.161-.351.308-.783.507-1.245.572-.45.031-.897-.098-1.262-.364a3.9106 3.9106 0 0 1-1.257-1.988 3.914 3.914 0 0 1 .11-2.35h-.018Zm-5.795.391c.387.75.536 1.6.427 2.436a3.2839 3.2839 0 0 1-.978 2.053c-.324.31-.745.498-1.191.534-.47-.003-.928-.143-1.319-.401a2.4197 2.4197 0 0 1-.886-1.057 4.1335 4.1335 0 0 1-.426-2.436c.07-.779.417-1.507.977-2.053.323-.306.74-.494 1.183-.533.473-.003.937.134 1.334.393s.709.63.897 1.064h-.018Zm-26.187-44.3374c6.222-5.5822 14.8-3.2445 19.254 5.2355 4.453 8.4799 3.048 19.8759-3.129 25.4579-6.178 5.582-14.791 3.244-19.245-5.227-4.453-8.471-3.058-19.8753 3.12-25.4664Zm22.596 57.6084c.124 1.778-.889 3.307-2.187 3.396-1.333.098-2.524-1.289-2.667-3.076-.142-1.786.889-3.306 2.196-3.395 1.307-.089 2.533 1.289 2.658 3.075Zm-43.671 2.952c-.711-10.143 4.871-18.774 12.444-19.289 7.573-.516 14.293 7.289 15.005 17.431.711 10.142-4.88 18.773-12.445 19.289-7.564.515-14.302-7.289-15.004-17.431Zm47.582 49.377c-3.236 8.996-11.449 12.445-18.347 7.778-6.898-4.667-9.849-15.813-6.604-24.809 3.244-8.995 11.458-12.444 18.346-7.777 6.889 4.666 9.849 15.848 6.605 24.808Zm1.493-39.671c-.127.449-.38.851-.731 1.158-.35.308-.781.508-1.242.576-.45.025-.895-.103-1.262-.365a3.297 3.297 0 0 1-1.254-1.902 4.167 4.167 0 0 1 .089-2.471c.119-.457.369-.87.72-1.186.351-.316.787-.522 1.254-.592.449-.022.893.106 1.262.364a3.929 3.929 0 0 1 1.292 2.022c.209.793.164 1.631-.128 2.396Zm-1.778-12.889c-.195-2.817 1.352-5.226 3.458-5.333 2.107-.107 3.982 2.009 4.187 4.836.204 2.826-1.351 5.226-3.458 5.333-2.107.107-4.044-2.018-4.231-4.791l.044-.045Zm7.574 12.489c-.37-.71-.513-1.517-.411-2.311a3.919 3.919 0 0 1 .98-2.133c.326-.306.745-.494 1.191-.534.462.004.914.139 1.301.391.388.252.695.61.885 1.032.387.749.536 1.599.427 2.435-.067.78-.414 1.51-.978 2.054-.321.307-.738.496-1.182.533a2.4236 2.4236 0 0 1-1.325-.404c-.393-.26-.702-.63-.888-1.063Zm26.204 44.329c-6.178 5.591-14.8 3.245-19.253-5.235-4.453-8.48-3.049-19.876 3.129-25.458 6.178-5.582 14.791-3.245 19.244 5.235 4.454 8.48 3.058 19.885-3.12 25.467v-.009Zm8.622-41.271c-7.582.516-14.293-7.289-15.004-17.431-.711-10.142 4.88-18.773 12.444-19.28 7.565-.507 14.294 7.289 14.996 17.422.702 10.133-4.853 18.782-12.436 19.298v-.009Z"
      opacity=".2" />
    <path fill="#7C6EF6"
      d="M341.667 269.52s-1.138-12.445-7.262-16.765c-4.338-3.04-1.512 5.333-1.512 5.333s-6.337-8.488-9.893-6.257c-3.555 2.231 6.222 10.746 6.222 10.746s-3.689-2.889-3.866.889c-.178 3.778 12.097 8.329 16.311 6.054Z" />
    <path fill="#121829"
      d="M341.667 269.52s-1.138-12.445-7.262-16.765c-4.338-3.04-1.512 5.333-1.512 5.333s-6.337-8.488-9.893-6.257c-3.555 2.231 6.222 10.746 6.222 10.746s-3.689-2.889-3.866.889c-.178 3.778 12.097 8.329 16.311 6.054Z"
      opacity=".2" />
    <path fill="#7C6EF6"
      d="M341.48 276.017c-.071-.115-7.689-11.884-1.111-27.715s12.098-32.845 7.476-48.676l.889-.249c4.693 16.098-.836 33.192-7.512 49.263-6.382 15.377.96 26.773 1.04 26.889l-.782.488Z" />
    <path fill="#7C6EF6"
      d="M340.111 269.52s-1.635-7.032 2.054-12.445 2.817 1.236 2.817 1.236 4.569-7.111 8.96-8.658c4.392-1.547-.888 6.551-.888 6.551.253-.194.549-.326.863-.387a2.0643 2.0643 0 0 1 1.773.497c.237.215.421.481.537.779 1.235 2.24-4.782 10.835-16.116 12.427Z" />
    <path fill="#121829"
      d="M340.111 269.52s-1.635-7.032 2.054-12.445 2.817 1.236 2.817 1.236 4.569-7.111 8.96-8.658c4.392-1.547-.888 6.551-.888 6.551.253-.194.549-.326.863-.387a2.0643 2.0643 0 0 1 1.773.497c.237.215.421.481.537.779 1.235 2.24-4.782 10.835-16.116 12.427Z"
      opacity=".4" />
    <path fill="#263238"
      d="M322.254 277.786c0 9.236-4.072 16.729 16.728 16.729 18.489 0 16.729-7.493 16.729-16.729 0-9.235-7.493-11.848-16.729-11.848-9.235 0-16.728 2.613-16.728 11.848Z" />
    <path fill="#263238" d="M320.44 274.924h37.031v-9.164H320.44v9.164Z" />
    <path fill="#121829" d="M320.44 274.924h37.031v-9.164H320.44v9.164Z" opacity=".2" />
    <path fill="#7C6EF6"
      d="m341.48 246.791-.178-.427c-2.355-5.68-2.222-13.182-2.213-13.502h.889c0 .08-.133 7.253 1.973 12.711 2.089-.978 11.342-5.44 13.885-8.889l.711.524c-2.996 4.045-14.178 9.129-14.649 9.343l-.418.24ZM348.876 222.835l-.187-.622a19.1508 19.1508 0 0 0-6.471-9.129l.524-.729a20.0077 20.0077 0 0 1 6.605 8.978c1.973-1.591 9.164-7.564 10.524-11.004l.827.328c-1.662 4.196-10.916 11.467-11.307 11.778l-.515.4ZM349.605 205.875s.364-2.915-3.876-5.964c-4.24-3.049-5.2-7.369-2.666-9.191 2.533-1.823-2.072-5.485 1.048-6.223 3.12-.737 1.627 4.978 4.303 4.676 2.675-.302 5.342 7.022 1.191 16.702Z" />
    <path fill="#7C6EF6"
      d="M356.316 215.68c.742-2.315.951-4.767.613-7.174-.604-3.733 2.924-6.124 4.329-2.951 1.404 3.174 4.444-1.235 5.804 2.809 1.36 4.045-5.706 4.4-4.933 6.373.773 1.974-5.813.943-5.813.943ZM346.111 216.32s-2.275-9.014-3.555-10.027c-1.28-1.013-1.173 1.707-3.298.151-2.124-1.555-5.609-2.524-5.182.845.427 3.369 6.453 4.311 4.258 6.115-2.196 1.805 6.417.996 7.777 2.916ZM339.889 238.489s5.387-5.067 3.556-6.222c-1.832-1.156-1.876 1.324-2.347-1.272-.471-2.595.115-5.537-2.489-5.111-2.604.427-.48 6.871-2.098 6.765-1.618-.107-3.671-2.062-3.36.542.311 2.604 6.738 5.298 6.738 5.298ZM350.271 242.017s2.916-5.2 2.862-8.213c-.053-3.013 3.636-4.285 3.352-.551-.285 3.733 4.008-4.027 5.768-2 1.76 2.026.889 6.595-2.177 7.458-3.067.862.809 2.088-.525 4.053-1.333 1.964-9.28-.747-9.28-.747Z" />
    <g fill="#121829" opacity=".2">
      <path
        d="M349.604 205.875s.365-2.915-3.875-5.964c-4.24-3.049-5.2-7.369-2.667-9.191 2.534-1.823-2.071-5.485 1.049-6.223 3.12-.737 1.627 4.978 4.302 4.676 2.676-.302 5.343 7.022 1.191 16.702ZM356.316 215.68c.742-2.315.951-4.767.613-7.174-.604-3.733 2.924-6.124 4.329-2.951 1.404 3.174 4.444-1.235 5.804 2.809 1.36 4.045-5.706 4.4-4.933 6.373.773 1.974-5.813.943-5.813.943ZM346.111 216.32s-2.275-9.014-3.555-10.027c-1.28-1.013-1.174 1.707-3.298.151-2.125-1.555-5.609-2.524-5.182.845.426 3.369 6.453 4.311 4.257 6.115-2.195 1.805 6.418.996 7.778 2.916ZM339.889 238.489s5.387-5.067 3.556-6.222c-1.832-1.156-1.876 1.324-2.347-1.272-.471-2.595.115-5.537-2.489-5.111-2.604.427-.48 6.871-2.098 6.765-1.618-.107-3.671-2.062-3.36.542.311 2.604 6.738 5.298 6.738 5.298ZM350.271 242.017s2.916-5.2 2.862-8.213c-.053-3.013 3.636-4.285 3.352-.551-.285 3.733 4.008-4.027 5.768-2 1.76 2.026.889 6.595-2.177 7.458-3.067.862.809 2.088-.525 4.053-1.333 1.964-9.28-.747-9.28-.747Z"
        opacity=".2" />
    </g>
    <path fill="#FFC3BD"
      d="m71.6397 103.734-1.6978 1.395c-.5867.48-1.1644.978-1.7244 1.476-1.12.986-2.2134 2-3.1645 3.022a15.9362 15.9362 0 0 0-2.2222 2.853 4.963 4.963 0 0 0-.2667.489c-.0444.08 0 .107-.0711.16v-.053a.381.381 0 0 0 0-.142.5808.5808 0 0 0 0-.187c-.0978-.338 0 .142.1956.596a19.5677 19.5677 0 0 0 2.2844 3.386c.9422 1.182 2 2.356 3.0667 3.556 2.16 2.338 4.4444 4.675 6.7555 6.969l-2.8 3.777a71.0867 71.0867 0 0 1-8.6044-5.697 50.9666 50.9666 0 0 1-4.0267-3.414 24.7203 24.7203 0 0 1-3.8311-4.444 11.8896 11.8896 0 0 1-.8889-1.627 8.1456 8.1456 0 0 1-.6578-2.391 7.8166 7.8166 0 0 1-.0444-.809v-.809c.0533-.355.0978-.737.1778-1.057.1405-.63.3277-1.248.56-1.849a21.218 21.218 0 0 1 3.2533-5.387 38.5725 38.5725 0 0 1 3.8756-3.9911c.6666-.6133 1.3422-1.2089 2.0355-1.7778.6933-.5688 1.3689-1.0933 2.2134-1.68l5.5822 7.6359Z" />
    <path fill="#7C6EF6"
      d="M83.5065 93.5115c.2755 5.6267-11.9823 13.7865-11.9823 13.7865l-11.0933-8.3287a24.089 24.089 0 0 1 8.8356-8.5689c6.56-3.8133 13.9555-2.6489 14.24 3.1111Z" />
    <path fill="#FAFAFA"
      d="M83.5064 93.5115c.1156 2.3644-1.9822 5.1822-4.4444 7.6535a55.7705 55.7705 0 0 1-5.9378 5.022c-.96.693-1.5822 1.12-1.5822 1.12l-8.3467-6.276-2.7378-2.0617s.08-.1511.24-.4178a24.8884 24.8884 0 0 1 8.5867-8.1511c6.5511-3.8222 13.9378-2.64 14.2222 3.1111Z"
      opacity=".6" />
    <path fill="#7C6EF6"
      d="m60.4308 97.6182 12.5955 9.6798-2.0889 2.258-11.6889-9.9734 1.1823-1.9644Z" />
    <path fill="#000"
      d="M79.0443 101.165a55.7705 55.7705 0 0 1-5.9378 5.022c-.3555-3.956 1.9733-8.5688 1.9733-8.5688a17.3391 17.3391 0 0 1 3.9645 3.5468Z"
      opacity=".2" />
    <path fill="#FFC3BD"
      d="M74.7686 127.245s3.4845 4.942 2.96 6.96a31.0402 31.0402 0 0 1-2.3022 5.271l-5.6622.675 1.8844-4.942.32-4.835 2.8-3.129ZM47.8796 285.823l5.7334 1.235 5.7511-12.64-5.7334-1.235-5.7511 12.64ZM90.8931 288.534h5.8578l.5866-13.574h-5.8578l-.5866 13.574Z" />
    <path fill="#000"
      d="m97.3376 274.969-.3022 6.987h-5.8667l.3022-6.987h5.8667ZM53.6308 273.183l5.7333 1.244-2.9689 6.516-5.7333-1.245 2.9689-6.515Z"
      opacity=".2" />
    <path fill="#263238"
      d="M95.0885 139.476s0 .258-.1066.729c-.1067.471-.2045 1.315-.3467 2.338-1.12 7.369-4.0711 26.666-6.7733 42.257-1.1111 6.374-2.1778 12.143-3.0756 16.232-4 18.382-25.44 79.111-25.44 79.111l-10.4889-2.267s14.9956-49.484 18.3467-75.209c2.1689-16.578 6.0978-49.938 7.2978-60.16.1155-1.022.2044-1.778.2666-2.338.0623-.56.0889-.729.0889-.729l20.2311.036Z" />
    <path fill="#FAFAFA"
      d="M95.0885 139.476s0 .258-.1066.729c-.1067.471-.2045 1.315-.3467 2.338-1.12 7.369-4.0711 26.666-6.7733 42.257-1.1111 6.374-2.1778 12.143-3.0756 16.232-4 18.382-25.44 79.111-25.44 79.111l-10.4889-2.267s14.9956-49.484 18.3467-75.209c2.1689-16.578 6.0978-49.938 7.2978-60.16.1155-1.022.2044-1.778.2666-2.338.0623-.56.0889-.729.0889-.729l20.2311.036Z"
      opacity=".2" />
    <path fill="#000"
      d="M90.8842 155.431c-7.6889 1.511-6.88 30.222-5.9556 44.933 2.2223-10.426 5.4667-30.488 7.6889-44.728a2.666 2.666 0 0 0-1.7333-.205Z"
      opacity=".3" />
    <path fill="#263238"
      d="M106.377 201.156c-.666 18.586-7.1551 79.449-7.1551 79.449H89.293s-.3644-59.778-.8089-78.036c-.1066-4.844-.3466-11.093-.6222-17.778-.7022-16.258-1.6978-35.031-2.0978-42.258 0-1.022-.0889-1.777-.1155-2.337-.0267-.56 0-.729 0-.729h20.6044V142.533c.178 10.249.658 43.6.124 58.623Z" />
    <path fill="#FAFAFA"
      d="M106.377 201.156c-.666 18.586-7.1551 79.449-7.1551 79.449H89.293s-.3644-59.778-.8089-78.036c-.1066-4.844-.3466-11.093-.6222-17.778-.7022-16.258-1.6978-35.031-2.0978-42.258 0-1.022-.0889-1.777-.1155-2.337-.0267-.56 0-.729 0-.729h20.6044V142.533c.178 10.249.658 43.6.124 58.623Z"
      opacity=".2" />
    <path fill="#263238"
      d="M98.0308 65.6803c.0977.4623.4177.7911.72.7289.3022-.0622.4711-.4889.3822-.9511-.0889-.4622-.4178-.7911-.72-.7289-.3023.0623-.4711.4889-.3822.9511Z" />
    <path fill="#ED847E"
      d="M98.4043 66.4805a17.0626 17.0626 0 0 0 3.0227 3.5555 2.6727 2.6727 0 0 1-.962.6856 2.663 2.663 0 0 1-1.1629.2033l-.8978-4.4444Z" />
    <path fill="#263238"
      d="M95.8174 63.4578a.2569.2569 0 0 1-.1866-.08.2672.2672 0 0 1-.0631-.3023.2668.2668 0 0 1 .0631-.0888 2.7381 2.7381 0 0 1 2.3644-.8889.2756.2756 0 0 1-.0978.5422 2.2132 2.2132 0 0 0-1.8577.7556.3029.3029 0 0 1-.2223.0622Z" />
    <path fill="#FFC3BD"
      d="M84.8397 72.1958c.8889 4.2844 1.68 12.1422-1.3155 15.0044 0 0 1.1644 4.3467 9.1377 4.3467 8.7551 0 4.1778-4.3467 4.1778-4.3467-4.7733-1.1377-4.6489-4.6844-3.8222-8l-8.1778-7.0044Z" />
    <path fill="#7C6EF6"
      d="M81.7909 88.0003c-.64-1.1911-1.3422-2.5512.1156-2.9778 1.6-.4711 11.9111-1.3422 14.9422-.4622-.9333 1.6622.64 3.6889.64 3.6889l-15.6978-.2489ZM55.8441 287.849c.2363.084.4867.119.7368.106.2502-.014.4952-.077.721-.186a.557.557 0 0 0 .1697-.298.5615.5615 0 0 0-.0364-.342.636.636 0 0 0-.3556-.409c-.7911-.382-2.6133.356-2.6666.392a.128.128 0 0 0-.0641.048.1324.1324 0 0 0-.0248.076.143.143 0 0 0 .0201.079c.0143.023.035.042.0599.054.4615.211.9442.372 1.44.48Zm.9511-.933a.432.432 0 0 1 .16.053c.0512.019.0973.05.1344.09.037.04.0641.089.0789.141.0711.258 0 .329 0 .356-.32.267-1.4844 0-2.3111-.302a4.4367 4.4367 0 0 1 1.9378-.338Z" />
    <path fill="#7C6EF6"
      d="M54.413 287.378h.0712c.6577-.187 2.0799-1.2 2.0977-1.858a.47.47 0 0 0-.1004-.287.4682.4682 0 0 0-.2551-.166.744.744 0 0 0-.6134.053c-.7822.4-1.28 2.018-1.2977 2.089a.1243.1243 0 0 0 0 .133.159.159 0 0 0 .0977.036Zm1.6623-2.045h.0622c.1689.054.1689.143.1689.178 0 .391-.9511 1.182-1.6356 1.502a3.308 3.308 0 0 1 1.0667-1.653.51.51 0 0 1 .3378-.027ZM99.1064 288.836c.7556 0 1.4756-.107 1.7246-.445a.526.526 0 0 0 .096-.302.526.526 0 0 0-.096-.302.6838.6838 0 0 0-.184-.209.682.682 0 0 0-.252-.12c-.9774-.267-3.0219.889-3.1108.951a.144.144 0 0 0-.0573.06.1436.1436 0 0 0-.0138.082.14.14 0 0 0 .0395.076.1404.1404 0 0 0 .0761.04 9.728 9.728 0 0 0 1.7777.169Zm.8889-1.138c.0887-.01.1777-.01.2667 0 .056.012.108.036.154.069.046.034.084.077.113.126.097.178.062.258 0 .312-.267.373-1.7781.382-2.8448.231a6.4162 6.4162 0 0 1 2.3558-.738h-.0447Z" />
    <path fill="#7C6EF6"
      d="M97.3374 288.667h.0533c.7111-.32 2.1067-1.582 2-2.249 0-.151-.1333-.347-.5155-.382a.9668.9668 0 0 0-.7645.231 4.0062 4.0062 0 0 0-.8889 2.258.161.161 0 0 0 .0149.074.165.165 0 0 0 .0473.059l.0534.009Zm1.4311-2.374h.08c.2489 0 .2667.125.2755.152.0623.4-.8888 1.395-1.6088 1.831a3.1563 3.1563 0 0 1 .7733-1.778.71.71 0 0 1 .48-.205Z" />
    <path fill="#263238"
      d="m54.1642 286.48-6.4356-1.386a.5054.5054 0 0 0-.5778.284l-2.2311 4.844a.8915.8915 0 0 0 .0346.744.892.892 0 0 0 .2437.293.8979.8979 0 0 0 .3439.163c2.2489.445 3.3689.552 6.2223 1.165 1.7777.373 5.6711 1.333 8.0711 1.858 2.4.524 3.2355-1.778 2.2933-2.223-4.2044-1.92-5.9555-3.608-7.1111-5.182a1.4681 1.4681 0 0 0-.8533-.56ZM96.7153 287.858h-6.3999a.5037.5037 0 0 0-.3199.112.5025.5025 0 0 0-.1779.288l-1.1556 5.209a.8888.8888 0 0 0 .1829.709c.079.098.1781.178.2906.235.1126.058.236.09.3621.096 2.3111-.045 5.6444-.178 8.5511-.178 3.3863 0 6.3203.187 10.3023.187 2.4 0 3.067-2.436 2.062-2.667-4.587-1.004-8.329-1.111-12.2843-3.556a2.7296 2.7296 0 0 0-1.4134-.435Z" />
    <path fill="#7C6EF6"
      d="M105.853 88.8268s6.222 7.04.356 50.6662H74.8575c-.2134-4.808 2.8089-28.284-1.8311-50.9507a82.3984 82.3984 0 0 1 10.4977-1.3244 114.6752 114.6752 0 0 1 13.3334 0 59.006 59.006 0 0 1 8.9955 1.6089Z" />
    <path fill="#FAFAFA"
      d="M108.724 109.556a251.2566 251.2566 0 0 1-2.515 29.92H74.8575c-.2134-4.809 2.8178-28.276-1.8311-50.9515a82.1092 82.1092 0 0 1 10.4977-1.3244 114.8082 114.8082 0 0 1 13.3334 0 58.0385 58.0385 0 0 1 9.0135 1.6266s1.173 1.3245 2.026 6.4178c.69 4.7374.967 9.5255.827 14.3115Z"
      opacity=".6" />
    <path fill="#000"
      d="M108.724 109.556c-2.622-2.756-7.182-8.267-6.791-12.8891l5.956-1.4223a82.648 82.648 0 0 1 .835 14.3114Z"
      opacity=".2" />
    <path fill="#FFC3BD"
      d="M82.3864 67.84c1.5023 5.6178 2.0978 8.9778 5.5645 11.3155 5.2178 3.5556 11.7067-.5155 11.9111-6.4711.187-5.3333-2.3111-13.6444-8.3378-14.7733a7.928 7.928 0 0 0-7.3384 2.4156 7.9282 7.9282 0 0 0-1.7994 7.5133Z" />
    <path fill="#263238"
      d="M84.9642 77.0046c2.3911 1.36 11.1022-3.2089 9.3066-10.1333 0 0 3.3245-3.9822 2.9423-8.3911-.3822-4.4089-3.3956-6.08-6.6045-5.1289-2.8355.8267-2.7555 2.3822-2.7555 2.3822s-13.3867 1.5734-10.5334 7.0223c-5.4488 5.9377 4.6667 12.5422 7.6445 14.2488Z" />
    <path fill="#FFC3BD"
      d="M91.9419 68.0801a6.6042 6.6042 0 0 0 2.3645 3.4933c1.5289 1.1378 2.6666 0 2.56-1.7067-.0978-1.5555-1.0134-4.0177-2.6667-4.4444-1.6533-.4267-2.6933.9689-2.2578 2.6578Z" />
    <path fill="#7C6EF6"
      d="m61.862 276.694-1.9555 3.786-11.8044-2.551.9955-3.555 12.7644 2.32ZM101.133 276.649l-.56 4.124h-12.08l-.3289-3.68 12.9689-.444Z" />
    <path fill="#FFC3BD"
      d="M103.667 91.867c1.662-.5244 3.511-1.0933 5.244-1.7067 1.733-.6133 3.555-1.2355 5.253-1.8933a82.3393 82.3393 0 0 0 9.947-4.4444 39.679 39.679 0 0 0 8.347-6.32 103.6745 103.6745 0 0 0 7.626-8.1422l4.036 2.4088a54.5219 54.5219 0 0 1-6.276 10.5245 43.7598 43.7598 0 0 1-4.142 4.7289c-.756.7644-1.573 1.4844-2.409 2.1955-.835.7111-1.778 1.4045-2.667 1.9556a53.2217 53.2217 0 0 1-5.386 3.1911c-1.822.9778-3.68 1.8222-5.547 2.6667-1.867.8444-3.751 1.5377-5.653 2.2044-1.902.6667-3.778 1.2891-5.858 1.7781l-2.515-9.147Z" />
    <path fill="#7C6EF6"
      d="M103.275 101.903c5.627 5.786 19.743-2.107 19.743-2.107l-4.196-13.5733a76.266 76.266 0 0 0-14.676 1.8666c-8.7017 2.1245-5.1462 9.4045-.871 13.8137Z" />
    <path fill="#FAFAFA"
      d="M103.275 101.903c5.627 5.786 19.743-2.107 19.743-2.107l-4.196-13.5733a76.266 76.266 0 0 0-14.676 1.8666c-8.7017 2.1245-5.1462 9.4045-.871 13.8137Z"
      opacity=".6" />
    <path fill="#FFC3BD"
      d="m139.675 70.0625 3.663-6.3467 4.968 4.0445s-1.937 4.8-6.222 4.7466l-2.409-2.4444Z" />
    <path fill="#FFC3BD" d="m145.986 62.3291 4.729 2.5245-2.453 3.0044-4.925-4.1422 2.649-1.3867Z" />
    <path fill="#FAFAFA"
      d="m61.862 276.694-1.9555 3.786-11.8044-2.551.9955-3.555 12.7644 2.32ZM101.133 276.649l-.56 4.124h-12.08l-.3289-3.68 12.9689-.444Z"
      opacity=".6" />
    <path fill="#7C6EF6" d="m117.409 85.8668 3.982 16.5332 2.667-2.231-4.64-14.7911-2.009.4889Z" />
    <path fill="#263238"
      d="M89.5864 140.205H78.6353v2.337h10.9511v-2.337ZM101.195 140.205H91.0264v2.337h10.1686v-2.337ZM77.6665 140.205v2.337h-3.1733c.1155-1.022.2044-1.777.2666-2.337h2.9067ZM106.262 142.542h-4.08v-2.337h4.035c.018.524.027 1.315.045 2.337ZM96.8754 53.9824c-5.0312-5.1022-9.8578 1.8667-9.8578 1.8667l8.5244-.8267c3.9289 1.9823 2.0978 6.8 2.0978 6.8s3.3422-3.6711-.7644-7.84Z" />
  </g>
  <defs>
    <clipPath id="a">
      <path fill="#fff" d="M0 0h400v320H0z" />
    </clipPath>
  </defs>
</svg>